<svg version="1.1" viewBox="0.0 0.0 960.0 540.0" fill="none" stroke="none" stroke-linecap="square" stroke-miterlimit="10" xmlns:xlink="http://www.w3.org/1999/xlink" xmlns="http://www.w3.org/2000/svg"><clipPath id="p.0"><path d="m0 0l960.0 0l0 540.0l-960.0 0l0 -540.0z" clip-rule="nonzero"/></clipPath><g clip-path="url(#p.0)"><path fill="#ffffff" d="m0 0l960.0 0l0 540.0l-960.0 0z" fill-rule="evenodd"/><path fill="#000000" fill-opacity="0.0" d="m472.44882 -158.83727l894.55115 0l0 83.21259l-894.55115 0z" fill-rule="evenodd"/><path fill="#eeeeee" d="m40.83202 202.69029l8.251968 10.505997l0 17.948639l-8.251968 10.505997z" fill-rule="evenodd"/><path stroke="#595959" stroke-width="1.0" stroke-linejoin="round" stroke-linecap="butt" d="m40.83202 202.69029l8.251968 10.505997l0 17.948639l-8.251968 10.505997z" fill-rule="evenodd"/><path fill="#eeeeee" d="m232.62466 78.1706l22.362213 0l0 288.0l-22.362213 0z" fill-rule="evenodd"/><path stroke="#595959" stroke-width="1.0" stroke-linejoin="round" stroke-linecap="butt" d="m232.62466 78.1706l22.362213 0l0 288.0l-22.362213 0z" fill-rule="evenodd"/><path fill="#eeeeee" d="m396.73227 78.1706l22.362213 0l0 288.0l-22.362213 0z" fill-rule="evenodd"/><path stroke="#595959" stroke-width="1.0" stroke-linejoin="round" stroke-linecap="butt" d="m396.73227 78.1706l22.362213 0l0 288.0l-22.362213 0z" fill-rule="evenodd"/><path fill="#eeeeee" d="m600.55383 78.1706l22.362183 0l0 288.0l-22.362183 0z" fill-rule="evenodd"/><path stroke="#595959" stroke-width="1.0" stroke-linejoin="round" stroke-linecap="butt" d="m600.55383 78.1706l22.362183 0l0 288.0l-22.362183 0z" fill-rule="evenodd"/><path fill="#eeeeee" d="m803.50134 78.1706l22.362183 0l0 288.0l-22.362183 0z" fill-rule="evenodd"/><path stroke="#595959" stroke-width="1.0" stroke-linejoin="round" stroke-linecap="butt" d="m803.50134 78.1706l22.362183 0l0 288.0l-22.362183 0z" fill-rule="evenodd"/><path fill="#eeeeee" d="m562.28345 185.71916l17.322876 18.766403l0 34.6483l-18.766418 19.488174l0 -27.430435l6.4960327 -7.939636l-5.774231 -6.496063z" fill-rule="evenodd"/><path stroke="#595959" stroke-width="1.0" stroke-linejoin="round" stroke-linecap="butt" d="m562.28345 185.71916l17.322876 18.766403l0 34.6483l-18.766418 19.488174l0 -27.430435l6.4960327 -7.939636l-5.774231 -6.496063z" fill-rule="evenodd"/><path fill="#eeeeee" d="m157.45407 88.27559l17.32283 18.766403l0 34.6483l-18.766403 19.48819l0 -27.43045l6.496063 -7.939636l-5.7742767 -6.496063z" fill-rule="evenodd"/><path stroke="#595959" stroke-width="1.0" stroke-linejoin="round" stroke-linecap="butt" d="m157.45407 88.27559l17.32283 18.766403l0 34.6483l-18.766403 19.48819l0 -27.43045l6.496063 -7.939636l-5.7742767 -6.496063z" fill-rule="evenodd"/><path fill="#eeeeee" d="m132.76378 178.12335l65.25984 0l0 88.09448l-65.25984 0z" fill-rule="evenodd"/><path stroke="#595959" stroke-width="1.0" stroke-linejoin="round" stroke-linecap="butt" d="m132.76378 178.12335l65.25984 0l0 88.09448l-65.25984 0z" fill-rule="evenodd"/><path fill="#000000" d="m151.03043 224.8506l0 -5.734375l0.75 0l0 5.734375l-0.75 0zm6.1757812 -2.015625l0.765625 0.203125q-0.25 0.921875 -0.875 1.421875q-0.609375 0.484375 -1.5 0.484375q-0.921875 0 -1.515625 -0.375q-0.578125 -0.375 -0.875 -1.09375q-0.296875 -0.71875 -0.296875 -1.53125q0 -0.890625 0.328125 -1.5625q0.34375 -0.671875 0.96875 -1.015625q0.640625 -0.34375 1.40625 -0.34375q0.859375 0 1.4375 0.4375q0.59375 0.4375 0.8125 1.234375l-0.734375 0.171875q-0.203125 -0.625 -0.59375 -0.90625q-0.375 -0.28125 -0.9375 -0.28125q-0.671875 0 -1.109375 0.3125q-0.4375 0.3125 -0.625 0.84375q-0.171875 0.53125 -0.171875 1.109375q0 0.71875 0.203125 1.265625q0.21875 0.546875 0.65625 0.828125q0.453125 0.265625 0.984375 0.265625q0.640625 0 1.078125 -0.359375q0.4375 -0.375 0.59375 -1.109375zm1.0585938 2.015625l2.203125 -5.734375l0.8125 0l2.34375 5.734375l-0.859375 0l-0.671875 -1.734375l-2.390625 0l-0.625 1.734375l-0.8125 0zm1.65625 -2.359375l1.9375 0l-0.59375 -1.578125q-0.265625 -0.71875 -0.40625 -1.1875q-0.109375 0.546875 -0.3125 1.09375l-0.625 1.671875zm8.3984375 0.34375l0.765625 0.203125q-0.25 0.921875 -0.875 1.421875q-0.609375 0.484375 -1.5 0.484375q-0.921875 0 -1.515625 -0.375q-0.578125 -0.375 -0.875 -1.09375q-0.296875 -0.71875 -0.296875 -1.53125q0 -0.890625 0.328125 -1.5625q0.34375 -0.671875 0.96875 -1.015625q0.640625 -0.34375 1.40625 -0.34375q0.859375 0 1.4375 0.4375q0.59375 0.4375 0.8125 1.234375l-0.734375 0.171875q-0.203125 -0.625 -0.59375 -0.90625q-0.375 -0.28125 -0.9375 -0.28125q-0.671875 0 -1.109375 0.3125q-0.4375 0.3125 -0.625 0.84375q-0.171875 0.53125 -0.171875 1.109375q0 0.71875 0.203125 1.265625q0.21875 0.546875 0.65625 0.828125q0.453125 0.265625 0.984375 0.265625q0.640625 0 1.078125 -0.359375q0.4375 -0.375 0.59375 -1.109375zm1.7148438 2.015625l0 -5.734375l0.765625 0l0 2.359375l2.96875 0l0 -2.359375l0.765625 0l0 5.734375l-0.765625 0l0 -2.703125l-2.96875 0l0 2.703125l-0.765625 0zm5.7773438 0l0 -5.734375l4.140625 0l0 0.6875l-3.390625 0l0 1.75l3.171875 0l0 0.671875l-3.171875 0l0 1.953125l3.515625 0l0 0.671875l-4.265625 0z" fill-rule="nonzero"/><path fill="#000000" fill-opacity="0.0" d="m82.1601 -200.85301l314.96063 0l0 42.015747l-314.96063 0z" fill-rule="evenodd"/><path fill="#000000" fill-opacity="0.0" d="m-25.10761 -120.845146l314.96063 0l0 42.015747l-314.96063 0z" fill-rule="evenodd"/><path fill="#eeeeee" d="m75.80052 170.46982l22.362206 0l0 103.40158l-22.362206 0z" fill-rule="evenodd"/><path stroke="#595959" stroke-width="1.0" stroke-linejoin="round" stroke-linecap="butt" d="m75.80052 170.46982l22.362206 0l0 103.40158l-22.362206 0z" fill-rule="evenodd"/><path fill="#eeeeee" d="m300.2362 138.78477l51.24411 0l0 148.69292l-51.24411 0z" fill-rule="evenodd"/><path stroke="#595959" stroke-width="1.0" stroke-linejoin="round" stroke-linecap="butt" d="m300.2362 138.78477l51.24411 0l0 148.69292l-51.24411 0z" fill-rule="evenodd"/><path fill="#eeeeee" d="m322.13123 321.90814l0 0c0 -13.4548645 3.2997131 -24.362213 7.3700867 -24.362213l0 0c1.9546814 0 3.8292847 2.566742 5.211426 7.1355286c1.3821716 4.5687866 2.158661 10.765411 2.158661 17.226685l0 0c0 13.4548645 -3.2997131 24.362213 -7.3700867 24.362213l0 0c-1.9546814 0 -3.8292847 -2.566742 -5.211426 -7.1355286c-1.3821716 -4.568817 -2.158661 -10.765442 -2.158661 -17.226685z" fill-rule="evenodd"/><path stroke="#595959" stroke-width="1.0" stroke-linejoin="round" stroke-linecap="butt" d="m322.13123 321.90814l0 0c0 -13.4548645 3.2997131 -24.362213 7.3700867 -24.362213l0 0c1.9546814 0 3.8292847 2.566742 5.211426 7.1355286c1.3821716 4.5687866 2.158661 10.765411 2.158661 17.226685l0 0c0 13.4548645 -3.2997131 24.362213 -7.3700867 24.362213l0 0c-1.9546814 0 -3.8292847 -2.566742 -5.211426 -7.1355286c-1.3821716 -4.568817 -2.158661 -10.765442 -2.158661 -17.226685z" fill-rule="evenodd"/><path fill="#eeeeee" d="m525.1181 185.71916l8.251953 10.505997l0 17.948639l-8.251953 10.505997z" fill-rule="evenodd"/><path stroke="#595959" stroke-width="1.0" stroke-linejoin="round" stroke-linecap="butt" d="m525.1181 185.71916l8.251953 10.505997l0 17.948639l-8.251953 10.505997z" fill-rule="evenodd"/><path fill="#eeeeee" d="m525.1181 224.6798l8.251953 10.505997l0 17.948639l-8.251953 10.505981z" fill-rule="evenodd"/><path stroke="#595959" stroke-width="1.0" stroke-linejoin="round" stroke-linecap="butt" d="m525.1181 224.6798l8.251953 10.505997l0 17.948639l-8.251953 10.505981z" fill-rule="evenodd"/><path fill="#eeeeee" d="m680.0945 236.31364l65.25983 0l0 88.0945l-65.25983 0z" fill-rule="evenodd"/><path stroke="#595959" stroke-width="1.0" stroke-linejoin="round" stroke-linecap="butt" d="m680.0945 236.31364l65.25983 0l0 88.0945l-65.25983 0z" fill-rule="evenodd"/><path fill="#000000" d="m696.4588 283.0409l0 -5.734375l1.96875 0q0.671875 0 1.015625 0.09375q0.5 0.109375 0.84375 0.40625q0.453125 0.375 0.671875 0.984375q0.234375 0.59375 0.234375 1.359375q0 0.640625 -0.15625 1.15625q-0.15625 0.5 -0.390625 0.828125q-0.234375 0.328125 -0.53125 0.515625q-0.28125 0.1875 -0.6875 0.296875q-0.390625 0.09375 -0.90625 0.09375l-2.0625 0zm0.75 -0.671875l1.21875 0q0.578125 0 0.890625 -0.109375q0.328125 -0.109375 0.515625 -0.296875q0.265625 -0.265625 0.421875 -0.71875q0.15625 -0.46875 0.15625 -1.109375q0 -0.90625 -0.296875 -1.375q-0.296875 -0.484375 -0.71875 -0.65625q-0.3125 -0.109375 -0.984375 -0.109375l-1.203125 0l0 4.375zm9.105469 -1.34375l0.765625 0.203125q-0.25 0.921875 -0.875 1.421875q-0.609375 0.484375 -1.5 0.484375q-0.921875 0 -1.515625 -0.375q-0.578125 -0.375 -0.875 -1.09375q-0.296875 -0.71875 -0.296875 -1.53125q0 -0.890625 0.328125 -1.5625q0.34375 -0.671875 0.96875 -1.015625q0.640625 -0.34375 1.40625 -0.34375q0.859375 0 1.4375 0.4375q0.59375 0.4375 0.8125 1.234375l-0.734375 0.171875q-0.203125 -0.625 -0.59375 -0.90625q-0.375 -0.28125 -0.9375 -0.28125q-0.671875 0 -1.109375 0.3125q-0.4375 0.3125 -0.625 0.84375q-0.171875 0.53125 -0.171875 1.109375q0 0.71875 0.203125 1.265625q0.21875 0.546875 0.65625 0.828125q0.453125 0.265625 0.984375 0.265625q0.640625 0 1.078125 -0.359375q0.4375 -0.375 0.59375 -1.109375zm1.0585938 2.015625l2.203125 -5.734375l0.8125 0l2.34375 5.734375l-0.859375 0l-0.671875 -1.734375l-2.390625 0l-0.625 1.734375l-0.8125 0zm1.65625 -2.359375l1.9375 0l-0.59375 -1.578125q-0.265625 -0.71875 -0.40625 -1.1875q-0.109375 0.546875 -0.3125 1.09375l-0.625 1.671875zm8.3984375 0.34375l0.765625 0.203125q-0.25 0.921875 -0.875 1.421875q-0.609375 0.484375 -1.5 0.484375q-0.921875 0 -1.515625 -0.375q-0.578125 -0.375 -0.875 -1.09375q-0.296875 -0.71875 -0.296875 -1.53125q0 -0.890625 0.328125 -1.5625q0.34375 -0.671875 0.96875 -1.015625q0.640625 -0.34375 1.40625 -0.34375q0.859375 0 1.4375 0.4375q0.59375 0.4375 0.8125 1.234375l-0.734375 0.171875q-0.203125 -0.625 -0.59375 -0.90625q-0.375 -0.28125 -0.9375 -0.28125q-0.671875 0 -1.109375 0.3125q-0.4375 0.3125 -0.625 0.84375q-0.171875 0.53125 -0.171875 1.109375q0 0.71875 0.203125 1.265625q0.21875 0.546875 0.65625 0.828125q0.453125 0.265625 0.984375 0.265625q0.640625 0 1.078125 -0.359375q0.4375 -0.375 0.59375 -1.109375zm1.7148438 2.015625l0 -5.734375l0.765625 0l0 2.359375l2.96875 0l0 -2.359375l0.765625 0l0 5.734375l-0.765625 0l0 -2.703125l-2.96875 0l0 2.703125l-0.765625 0zm5.7773438 0l0 -5.734375l4.140625 0l0 0.6875l-3.390625 0l0 1.75l3.171875 0l0 0.671875l-3.171875 0l0 1.953125l3.515625 0l0 0.671875l-4.265625 0z" fill-rule="nonzero"/><path fill="#eeeeee" d="m863.7664 202.87927l8.251953 10.505981l0 17.948654l-8.251953 10.505981z" fill-rule="evenodd"/><path stroke="#595959" stroke-width="1.0" stroke-linejoin="round" stroke-linecap="butt" d="m863.7664 202.87927l8.251953 10.505981l0 17.948654l-8.251953 10.505981z" fill-rule="evenodd"/><path fill="#eeeeee" d="m130.74803 412.0866l69.291336 0l0 69.29135l-69.291336 0z" fill-rule="evenodd"/><path stroke="#595959" stroke-width="1.0" stroke-linejoin="round" stroke-linecap="butt" d="m130.74803 412.0866l69.291336 0l0 69.29135l-69.291336 0z" fill-rule="evenodd"/><path fill="#000000" fill-opacity="0.0" d="m49.08399 222.17061l13.358337 0l0 0.06298828l13.350323 0" fill-rule="evenodd"/><path stroke="#595959" stroke-width="1.0" stroke-linejoin="round" stroke-linecap="butt" d="m49.08399 222.17061l13.358337 0l0 0.06298828l13.350323 0" fill-rule="evenodd"/><path fill="#000000" fill-opacity="0.0" d="m98.874016 221.60367l-0.4985199 0l0 0.5669403l34.388283 0" fill-rule="evenodd"/><path stroke="#595959" stroke-width="1.0" stroke-linejoin="round" stroke-linecap="butt" d="m98.874016 221.60367l-0.4985199 0l0 0.5669403l34.388283 0" fill-rule="evenodd"/><path fill="#000000" fill-opacity="0.0" d="m199.20735 222.32808l16.708664 0l0 -0.1574707l16.708649 0" fill-rule="evenodd"/><path stroke="#595959" stroke-width="1.0" stroke-linejoin="round" stroke-linecap="butt" d="m199.20735 222.32808l16.708664 0l0 -0.1574707l16.708649 0" fill-rule="evenodd"/><path fill="#000000" fill-opacity="0.0" d="m111.15748 222.31496l0 -116.93196l45.480324 0l0 -0.70583344" fill-rule="evenodd"/><path stroke="#595959" stroke-width="1.0" stroke-linejoin="round" stroke-linecap="butt" d="m111.15748 222.31496l0 -116.93196l45.480324 0l0 -0.70583344" fill-rule="evenodd"/><path fill="#000000" fill-opacity="0.0" d="m256.24146 223.75853l20.22049 0" fill-rule="evenodd"/><path stroke="#595959" stroke-width="1.0" stroke-linejoin="round" stroke-linecap="butt" d="m256.24146 223.75853l20.22049 0" fill-rule="evenodd"/><path fill="#000000" fill-opacity="0.0" d="m275.72964 223.03674l0 -76.50929l25.259857 0l0 0.005355835" fill-rule="evenodd"/><path stroke="#595959" stroke-width="1.0" stroke-linejoin="round" stroke-linecap="butt" d="m275.72964 223.03674l0 -76.50929l25.259857 0l0 0.005355835" fill-rule="evenodd"/><path fill="#000000" fill-opacity="0.0" d="m276.09186 184.41995l24.251984 -0.06300354" fill-rule="evenodd"/><path stroke="#595959" stroke-width="1.0" stroke-linejoin="round" stroke-linecap="butt" d="m276.09186 184.41995l24.251984 -0.06300354" fill-rule="evenodd"/><path fill="#000000" fill-opacity="0.0" d="m276.45145 224.48032l0 97.9003l45.07086 0l0 0.2729187" fill-rule="evenodd"/><path stroke="#595959" stroke-width="1.0" stroke-linejoin="round" stroke-linecap="butt" d="m276.45145 224.48032l0 97.9003l45.07086 0l0 0.2729187" fill-rule="evenodd"/><path fill="#000000" fill-opacity="0.0" d="m276.45145 321.9239l0 0l0 34.04724l119.811035 0" fill-rule="evenodd"/><path stroke="#595959" stroke-width="1.0" stroke-linejoin="round" stroke-linecap="butt" d="m276.45145 321.9239l0 0l0 34.04724l119.811035 0" fill-rule="evenodd"/><path fill="#000000" fill-opacity="0.0" d="m351.51968 190.55643l46.204712 0" fill-rule="evenodd"/><path stroke="#595959" stroke-width="1.0" stroke-linejoin="round" stroke-linecap="butt" d="m351.51968 190.55643l46.204712 0" fill-rule="evenodd"/><path fill="#000000" fill-opacity="0.0" d="m352.24146 252.63255l45.480316 0" fill-rule="evenodd"/><path stroke="#595959" stroke-width="1.0" stroke-linejoin="round" stroke-linecap="butt" d="m352.24146 252.63255l45.480316 0" fill-rule="evenodd"/><path fill="#000000" fill-opacity="0.0" d="m336.99475 322.5433l60.125977 0.56692505" fill-rule="evenodd"/><path stroke="#595959" stroke-width="1.0" stroke-linejoin="round" stroke-linecap="butt" d="m336.99475 322.5433l60.125977 0.56692505" fill-rule="evenodd"/><path fill="#000000" fill-opacity="0.0" d="m419.65353 323.69815l17.91864 0l-0.5774231 -65.317566l88.43829 0" fill-rule="evenodd"/><path stroke="#595959" stroke-width="1.0" stroke-linejoin="round" stroke-linecap="butt" d="m419.65353 323.69815l17.91864 0l-0.5774231 -65.317566l88.43829 0" fill-rule="evenodd"/><path fill="#000000" fill-opacity="0.0" d="m525.43304 213.2021l-106.36218 0" fill-rule="evenodd"/><path stroke="#595959" stroke-width="1.0" stroke-linejoin="round" stroke-linecap="butt" d="m525.43304 213.2021l-106.36218 0" fill-rule="evenodd"/><path fill="#000000" fill-opacity="0.0" d="m525.43304 237.2021l-106.36218 0" fill-rule="evenodd"/><path stroke="#595959" stroke-width="1.0" stroke-linejoin="round" stroke-linecap="butt" d="m525.43304 237.2021l-106.36218 0" fill-rule="evenodd"/><path fill="#000000" fill-opacity="0.0" d="m420.08136 97.71391l14.023621 0l0 95.93701l91.456726 0" fill-rule="evenodd"/><path stroke="#595959" stroke-width="1.0" stroke-linejoin="round" stroke-linecap="butt" d="m420.08136 97.71391l14.023621 0l0 95.93701l91.456726 0" fill-rule="evenodd"/><path fill="#000000" fill-opacity="0.0" d="m534.105 205.77953l28.314941 0" fill-rule="evenodd"/><path stroke="#595959" stroke-width="1.0" stroke-linejoin="round" stroke-linecap="butt" d="m534.105 205.77953l28.314941 0" fill-rule="evenodd"/><path fill="#000000" fill-opacity="0.0" d="m533.37006 244.16011l28.315002 0" fill-rule="evenodd"/><path stroke="#595959" stroke-width="1.0" stroke-linejoin="round" stroke-linecap="butt" d="m533.37006 244.16011l28.315002 0" fill-rule="evenodd"/><path fill="#000000" fill-opacity="0.0" d="m579.7664 222.54855l20.787415 -0.37794495" fill-rule="evenodd"/><path stroke="#595959" stroke-width="1.0" stroke-linejoin="round" stroke-linecap="butt" d="m579.7664 222.54855l20.787415 -0.37794495" fill-rule="evenodd"/><path fill="#000000" fill-opacity="0.0" d="m428.32285 237.57217l-1.1544495 0l0 38.740173l173.97333 0" fill-rule="evenodd"/><path stroke="#595959" stroke-width="1.0" stroke-linejoin="round" stroke-linecap="butt" d="m428.32285 237.57217l-1.1544495 0l0 38.740173l173.97333 0" fill-rule="evenodd"/><path fill="#eeeeee" d="m676.5486 412.0866l69.29132 0l0 69.29135l-69.29132 0z" fill-rule="evenodd"/><path stroke="#595959" stroke-width="1.0" stroke-linejoin="round" stroke-linecap="butt" d="m676.5486 412.0866l69.29132 0l0 69.29135l-69.29132 0z" fill-rule="evenodd"/><path fill="#000000" d="m701.745 444.4123l0 -5.734375l1.96875 0q0.671875 0 1.015625 0.09375q0.5 0.109375 0.84375 0.40625q0.453125 0.375 0.671875 0.984375q0.234375 0.59375 0.234375 1.359375q0 0.640625 -0.15625 1.15625q-0.15625 0.5 -0.390625 0.828125q-0.234375 0.328125 -0.53125 0.515625q-0.28125 0.1875 -0.6875 0.296875q-0.390625 0.09375 -0.90625 0.09375l-2.0625 0zm0.75 -0.671875l1.21875 0q0.578125 0 0.890625 -0.109375q0.328125 -0.109375 0.515625 -0.296875q0.265625 -0.265625 0.421875 -0.71875q0.15625 -0.46875 0.15625 -1.109375q0 -0.90625 -0.296875 -1.375q-0.296875 -0.484375 -0.71875 -0.65625q-0.3125 -0.109375 -0.984375 -0.109375l-1.203125 0l0 4.375zm4.3867188 0.671875l2.203125 -5.734375l0.8125 0l2.34375 5.734375l-0.859375 0l-0.671875 -1.734375l-2.390625 0l-0.625 1.734375l-0.8125 0zm1.65625 -2.359375l1.9375 0l-0.59375 -1.578125q-0.265625 -0.71875 -0.40625 -1.1875q-0.109375 0.546875 -0.3125 1.09375l-0.625 1.671875zm5.1796875 2.359375l0 -5.046875l-1.890625 0l0 -0.6875l4.546875 0l0 0.6875l-1.90625 0l0 5.046875l-0.75 0zm2.1992188 0l2.203125 -5.734375l0.8125 0l2.34375 5.734375l-0.859375 0l-0.671875 -1.734375l-2.390625 0l-0.625 1.734375l-0.8125 0zm1.65625 -2.359375l1.9375 0l-0.59375 -1.578125q-0.265625 -0.71875 -0.40625 -1.1875q-0.109375 0.546875 -0.3125 1.09375l-0.625 1.671875z" fill-rule="nonzero"/><path fill="#000000" d="m693.8602 454.4123l0 -5.734375l1.140625 0l1.359375 4.0625q0.1875 0.5625 0.265625 0.84375q0.109375 -0.3125 0.3125 -0.921875l1.375 -3.984375l1.015625 0l0 5.734375l-0.734375 0l0 -4.796875l-1.65625 4.796875l-0.6875 0l-1.65625 -4.875l0 4.875l-0.734375 0zm6.7109375 0l0 -5.734375l4.140625 0l0 0.6875l-3.390625 0l0 1.75l3.171875 0l0 0.671875l-3.171875 0l0 1.953125l3.515625 0l0 0.671875l-4.265625 0zm5.2890625 0l0 -5.734375l1.140625 0l1.359375 4.0625q0.1875 0.5625 0.265625 0.84375q0.109375 -0.3125 0.3125 -0.921875l1.375 -3.984375l1.015625 0l0 5.734375l-0.734375 0l0 -4.796875l-1.65625 4.796875l-0.6875 0l-1.65625 -4.875l0 4.875l-0.734375 0zm6.4609375 -2.796875q0 -1.421875 0.765625 -2.21875q0.765625 -0.8125 1.96875 -0.8125q0.796875 0 1.4375 0.375q0.640625 0.375 0.96875 1.0625q0.328125 0.671875 0.328125 1.53125q0 0.875 -0.359375 1.5625q-0.34375 0.6875 -0.984375 1.046875q-0.640625 0.34375 -1.390625 0.34375q-0.8125 0 -1.453125 -0.390625q-0.625 -0.390625 -0.953125 -1.0625q-0.328125 -0.671875 -0.328125 -1.4375zm0.78125 0.015625q0 1.03125 0.546875 1.640625q0.5625 0.59375 1.40625 0.59375q0.859375 0 1.40625 -0.59375q0.546875 -0.609375 0.546875 -1.71875q0 -0.703125 -0.234375 -1.21875q-0.234375 -0.53125 -0.6875 -0.8125q-0.453125 -0.28125 -1.015625 -0.28125q-0.8125 0 -1.390625 0.546875q-0.578125 0.546875 -0.578125 1.84375zm5.6757812 2.78125l0 -5.734375l2.546875 0q0.765625 0 1.15625 0.15625q0.40625 0.15625 0.640625 0.546875q0.234375 0.390625 0.234375 0.859375q0 0.609375 -0.390625 1.03125q-0.390625 0.421875 -1.21875 0.53125q0.296875 0.140625 0.453125 0.28125q0.34375 0.3125 0.640625 0.765625l0.984375 1.5625l-0.953125 0l-0.75 -1.1875q-0.328125 -0.515625 -0.546875 -0.78125q-0.21875 -0.28125 -0.390625 -0.390625q-0.171875 -0.109375 -0.34375 -0.15625q-0.125 -0.03125 -0.421875 -0.03125l-0.875 0l0 2.546875l-0.765625 0zm0.765625 -3.203125l1.625 0q0.515625 0 0.8125 -0.109375q0.296875 -0.109375 0.4375 -0.34375q0.15625 -0.234375 0.15625 -0.515625q0 -0.40625 -0.296875 -0.65625q-0.28125 -0.265625 -0.921875 -0.265625l-1.8125 0l0 1.890625zm6.4765625 3.203125l0 -2.421875l-2.203125 -3.3125l0.921875 0l1.125 1.734375q0.3125 0.484375 0.578125 0.96875q0.265625 -0.453125 0.625 -1.015625l1.109375 -1.6875l0.890625 0l-2.296875 3.3125l0 2.421875l-0.75 0z" fill-rule="nonzero"/><path fill="#000000" fill-opacity="0.0" d="m692.0289 413.04462l0.06298828 -88.37796" fill-rule="evenodd"/><path stroke="#595959" stroke-width="1.0" stroke-linejoin="round" stroke-linecap="butt" d="m692.0289 413.04462l0.06298828 -88.37796" fill-rule="evenodd"/><path fill="#000000" fill-opacity="0.0" d="m825.64307 230.13911l38.04474 0l0 -7.811035l-0.15496826 0" fill-rule="evenodd"/><path stroke="#595959" stroke-width="1.0" stroke-linejoin="round" stroke-linecap="butt" d="m825.64307 230.13911l38.04474 0l0 -7.811035l-0.15496826 0" fill-rule="evenodd"/><path fill="#000000" fill-opacity="0.0" d="m419.65353 356.06824l90.75592 0l0 0.06298828l90.75589 0" fill-rule="evenodd"/><path stroke="#595959" stroke-width="1.0" stroke-linejoin="round" stroke-linecap="butt" d="m419.65353 356.06824l90.75592 0l0 0.06298828l90.75589 0" fill-rule="evenodd"/><path fill="#000000" fill-opacity="0.0" d="m622.54333 356.06824l90.75586 0l0 0.06298828l90.75592 0" fill-rule="evenodd"/><path stroke="#595959" stroke-width="1.0" stroke-linejoin="round" stroke-linecap="butt" d="m622.54333 356.06824l90.75586 0l0 0.06298828l90.75592 0" fill-rule="evenodd"/><path fill="#000000" fill-opacity="0.0" d="m147.82677 266.66666l0 73.19687l0.06300354 0l0 73.19684" fill-rule="evenodd"/><path stroke="#595959" stroke-width="1.0" stroke-linejoin="round" stroke-linecap="butt" d="m147.82677 266.66666l0 73.19687l0.06300354 0l0 73.19684" fill-rule="evenodd"/><path fill="#000000" fill-opacity="0.0" d="m186.12862 266.22046l0 72.92914l-0.06300354 0l0 72.92914" fill-rule="evenodd"/><path stroke="#595959" stroke-width="1.0" stroke-linejoin="round" stroke-linecap="butt" d="m186.12862 266.22046l0 72.92914l-0.06300354 0l0 72.92914" fill-rule="evenodd"/><path fill="#000000" fill-opacity="0.0" d="m731.9921 324.60892l0 3.579712l-0.09448242 0l0 84.13684" fill-rule="evenodd"/><path stroke="#595959" stroke-width="1.0" stroke-linejoin="round" stroke-linecap="butt" d="m731.9921 324.60892l0 3.579712l-0.09448242 0l0 84.13684" fill-rule="evenodd"/><path fill="#000000" fill-opacity="0.0" d="m814.68243 366.1706l0 25.00058l-524.8294 0l0 -141.15805l0.010498047 0" fill-rule="evenodd"/><path stroke="#595959" stroke-width="1.0" stroke-linejoin="round" stroke-linecap="butt" d="m814.68243 366.1706l0 25.00058l-524.8294 0l0 -141.15805l0.010498047 0" fill-rule="evenodd"/><path fill="#000000" fill-opacity="0.0" d="m289.96326 250.18898l10.803162 0" fill-rule="evenodd"/><path stroke="#595959" stroke-width="1.0" stroke-linejoin="round" stroke-linecap="butt" d="m289.96326 250.18898l10.803162 0" fill-rule="evenodd"/><path fill="#000000" fill-opacity="0.0" d="m300.22046 270.9239l0 0l-6.740143 0l0 126.96063" fill-rule="evenodd"/><path stroke="#595959" stroke-width="1.0" stroke-linejoin="round" stroke-linecap="butt" d="m300.22046 270.9239l0 0l-6.740143 0l0 126.96063" fill-rule="evenodd"/><path fill="#000000" fill-opacity="0.0" d="m872.8583 222.85826l0 -0.57992554l13.763794 0l0 175.2571" fill-rule="evenodd"/><path stroke="#595959" stroke-width="1.0" stroke-linejoin="round" stroke-linecap="butt" d="m872.8583 222.85826l0 -0.57992554l13.763794 0l0 175.2571" fill-rule="evenodd"/><path fill="#000000" fill-opacity="0.0" d="m293.60104 397.44095l296.51968 0l0 0.09448242l296.5197 0" fill-rule="evenodd"/><path stroke="#595959" stroke-width="1.0" stroke-linejoin="round" stroke-linecap="butt" d="m293.60104 397.44095l296.51968 0l0 0.09448242l296.5197 0" fill-rule="evenodd"/><path fill="#eeeeee" d="m75.937004 274.0656l11.181107 -10.425201l11.181099 10.425201z" fill-rule="evenodd"/><path stroke="#595959" stroke-width="1.0" stroke-linejoin="round" stroke-linecap="butt" d="m75.937004 274.0656l11.181107 -10.425201l11.181099 10.425201z" fill-rule="evenodd"/><path fill="#eeeeee" d="m232.62466 366.1706l11.181107 -10.425201l11.181107 10.425201z" fill-rule="evenodd"/><path stroke="#595959" stroke-width="1.0" stroke-linejoin="round" stroke-linecap="butt" d="m232.62466 366.1706l11.181107 -10.425201l11.181107 10.425201z" fill-rule="evenodd"/><path fill="#eeeeee" d="m396.77692 366.55643l11.181091 -10.425201l11.181091 10.425201z" fill-rule="evenodd"/><path stroke="#595959" stroke-width="1.0" stroke-linejoin="round" stroke-linecap="butt" d="m396.77692 366.55643l11.181091 -10.425201l11.181091 10.425201z" fill-rule="evenodd"/><path fill="#eeeeee" d="m600.5525 366.1706l11.181091 -10.425201l11.181091 10.425201z" fill-rule="evenodd"/><path stroke="#595959" stroke-width="1.0" stroke-linejoin="round" stroke-linecap="butt" d="m600.5525 366.1706l11.181091 -10.425201l11.181091 10.425201z" fill-rule="evenodd"/><path fill="#eeeeee" d="m803.50134 366.55643l11.181091 -10.425201l11.181091 10.425201z" fill-rule="evenodd"/><path stroke="#595959" stroke-width="1.0" stroke-linejoin="round" stroke-linecap="butt" d="m803.50134 366.55643l11.181091 -10.425201l11.181091 10.425201z" fill-rule="evenodd"/><path fill="#000000" fill-opacity="0.0" d="m29.356955 228.90027l-0.4592762 0l0 -163.77954l560.5537 0" fill-rule="evenodd"/><path stroke="#595959" stroke-width="1.0" stroke-linejoin="round" stroke-linecap="butt" d="m29.356955 228.90027l-0.4592762 0l0 -163.77954l560.5537 0" fill-rule="evenodd"/><path fill="#000000" fill-opacity="0.0" d="m589.43567 65.603676l0 156.56693l11.118164 0" fill-rule="evenodd"/><path stroke="#595959" stroke-width="1.0" stroke-linejoin="round" stroke-linecap="butt" d="m589.43567 65.603676l0 156.56693l11.118164 0" fill-rule="evenodd"/><path fill="#000000" fill-opacity="0.0" d="m579.56433 215.3622l0 0l5.291321 0l0 -139.71652" fill-rule="evenodd"/><path stroke="#595959" stroke-width="1.0" stroke-linejoin="round" stroke-linecap="butt" d="m579.56433 215.3622l0 0l5.291321 0l0 -139.71652" fill-rule="evenodd"/><path fill="#000000" fill-opacity="0.0" d="m585.30444 75.58793l-270.18896 0l0 0.06298828l-270.18896 0" fill-rule="evenodd"/><path stroke="#595959" stroke-width="1.0" stroke-linejoin="round" stroke-linecap="butt" d="m585.30444 75.58793l-270.18896 0l0 0.06298828l-270.18896 0" fill-rule="evenodd"/><path fill="#000000" fill-opacity="0.0" d="m44.92651 207.71231l0 -66.04724l0.062992096 0l0 -66.04724" fill-rule="evenodd"/><path stroke="#595959" stroke-width="1.0" stroke-linejoin="round" stroke-linecap="butt" d="m44.92651 207.71231l0 -66.04724l0.062992096 0l0 -66.04724" fill-rule="evenodd"/><path fill="#000000" fill-opacity="0.0" d="m175.22835 126.14698l28.67717 0l0 -33.95275l28.677155 0" fill-rule="evenodd"/><path stroke="#595959" stroke-width="1.0" stroke-linejoin="round" stroke-linecap="butt" d="m175.22835 126.14698l28.67717 0l0 -33.95275l28.677155 0" fill-rule="evenodd"/><path fill="#000000" fill-opacity="0.0" d="m203.93701 92.561676l0.43008423 0l0 -8.724403l-99.98914 0" fill-rule="evenodd"/><path stroke="#595959" stroke-width="1.0" stroke-linejoin="round" stroke-linecap="butt" d="m203.93701 92.561676l0.43008423 0l0 -8.724403l-99.98914 0" fill-rule="evenodd"/><path fill="#000000" fill-opacity="0.0" d="m28.984251 229.27559l11.748034 0" fill-rule="evenodd"/><path stroke="#595959" stroke-width="1.0" stroke-linejoin="round" stroke-linecap="butt" d="m28.984251 229.27559l11.748034 0" fill-rule="evenodd"/><path fill="#000000" fill-opacity="0.0" d="m255.34908 93.02362l70.92915 0l0 0.06299591l70.92911 0" fill-rule="evenodd"/><path stroke="#595959" stroke-width="1.0" stroke-linejoin="round" stroke-linecap="butt" d="m255.34908 93.02362l70.92915 0l0 0.06299591l70.92911 0" fill-rule="evenodd"/><path fill="#000000" fill-opacity="0.0" d="m622.916 222.17061l28.58899 0l0 58.204727l28.576355 0" fill-rule="evenodd"/><path stroke="#595959" stroke-width="1.0" stroke-linejoin="round" stroke-linecap="butt" d="m622.916 222.17061l28.58899 0l0 58.204727l28.576355 0" fill-rule="evenodd"/><path fill="#eeeeee" d="m680.5801 165.91525l65.25983 0l0 38.740158l-65.25983 0z" fill-rule="evenodd"/><path stroke="#595959" stroke-width="1.0" stroke-linejoin="round" stroke-linecap="butt" d="m680.5801 165.91525l65.25983 0l0 38.740158l-65.25983 0z" fill-rule="evenodd"/><path fill="#000000" d="m699.8623 181.12158l0.71875 -0.0625q0.046875 0.4375 0.234375 0.71875q0.1875 0.265625 0.578125 0.4375q0.390625 0.171875 0.875 0.171875q0.4375 0 0.765625 -0.125q0.328125 -0.140625 0.484375 -0.359375q0.171875 -0.234375 0.171875 -0.5q0 -0.265625 -0.15625 -0.46875q-0.15625 -0.203125 -0.515625 -0.328125q-0.234375 -0.09375 -1.03125 -0.28125q-0.78125 -0.1875 -1.09375 -0.359375q-0.40625 -0.21875 -0.609375 -0.53125q-0.203125 -0.328125 -0.203125 -0.71875q0 -0.4375 0.25 -0.8125q0.25 -0.375 0.71875 -0.5625q0.46875 -0.203125 1.046875 -0.203125q0.640625 0 1.125 0.203125q0.484375 0.203125 0.75 0.609375q0.265625 0.390625 0.28125 0.90625l-0.734375 0.046875q-0.046875 -0.546875 -0.390625 -0.8125q-0.34375 -0.28125 -1.0 -0.28125q-0.6875 0 -1.0 0.25q-0.3125 0.25 -0.3125 0.609375q0 0.3125 0.21875 0.5q0.21875 0.203125 1.140625 0.421875q0.921875 0.203125 1.265625 0.359375q0.5 0.234375 0.734375 0.59375q0.25 0.34375 0.25 0.796875q0 0.46875 -0.265625 0.875q-0.265625 0.390625 -0.75 0.625q-0.484375 0.21875 -1.109375 0.21875q-0.765625 0 -1.296875 -0.21875q-0.53125 -0.234375 -0.828125 -0.6875q-0.296875 -0.453125 -0.3125 -1.03125zm7.0546875 1.84375l0 -5.046875l-1.890625 0l0 -0.6875l4.546875 0l0 0.6875l-1.90625 0l0 5.046875l-0.75 0zm3.0546875 -2.796875q0 -1.421875 0.765625 -2.21875q0.765625 -0.8125 1.96875 -0.8125q0.796875 0 1.4375 0.375q0.640625 0.375 0.96875 1.0625q0.328125 0.671875 0.328125 1.53125q0 0.875 -0.359375 1.5625q-0.34375 0.6875 -0.984375 1.046875q-0.640625 0.34375 -1.390625 0.34375q-0.8125 0 -1.453125 -0.390625q-0.625 -0.390625 -0.953125 -1.0625q-0.328125 -0.671875 -0.328125 -1.4375zm0.78125 0.015625q0 1.03125 0.546875 1.640625q0.5625 0.59375 1.40625 0.59375q0.859375 0 1.40625 -0.59375q0.546875 -0.609375 0.546875 -1.71875q0 -0.703125 -0.234375 -1.21875q-0.234375 -0.53125 -0.6875 -0.8125q-0.453125 -0.28125 -1.015625 -0.28125q-0.8125 0 -1.390625 0.546875q-0.578125 0.546875 -0.578125 1.84375zm5.6757812 2.78125l0 -5.734375l2.546875 0q0.765625 0 1.15625 0.15625q0.40625 0.15625 0.640625 0.546875q0.234375 0.390625 0.234375 0.859375q0 0.609375 -0.390625 1.03125q-0.390625 0.421875 -1.21875 0.53125q0.296875 0.140625 0.453125 0.28125q0.34375 0.3125 0.640625 0.765625l0.984375 1.5625l-0.953125 0l-0.75 -1.1875q-0.328125 -0.515625 -0.546875 -0.78125q-0.21875 -0.28125 -0.390625 -0.390625q-0.171875 -0.109375 -0.34375 -0.15625q-0.125 -0.03125 -0.421875 -0.03125l-0.875 0l0 2.546875l-0.765625 0zm0.765625 -3.203125l1.625 0q0.515625 0 0.8125 -0.109375q0.296875 -0.109375 0.4375 -0.34375q0.15625 -0.234375 0.15625 -0.515625q0 -0.40625 -0.296875 -0.65625q-0.28125 -0.265625 -0.921875 -0.265625l-1.8125 0l0 1.890625zm5.0273438 3.203125l0 -5.734375l4.140625 0l0 0.6875l-3.390625 0l0 1.75l3.171875 0l0 0.671875l-3.171875 0l0 1.953125l3.515625 0l0 0.671875l-4.265625 0z" fill-rule="nonzero"/><path fill="#000000" d="m697.8037 192.96533l0 -5.734375l2.140625 0q0.65625 0 1.046875 0.1875q0.40625 0.171875 0.625 0.53125q0.234375 0.359375 0.234375 0.75q0 0.375 -0.203125 0.703125q-0.203125 0.3125 -0.609375 0.515625q0.53125 0.15625 0.796875 0.53125q0.28125 0.359375 0.28125 0.859375q0 0.390625 -0.171875 0.75q-0.15625 0.34375 -0.40625 0.53125q-0.25 0.1875 -0.640625 0.28125q-0.375 0.09375 -0.921875 0.09375l-2.171875 0zm0.75 -3.328125l1.234375 0q0.515625 0 0.734375 -0.0625q0.28125 -0.078125 0.421875 -0.28125q0.15625 -0.203125 0.15625 -0.5q0 -0.28125 -0.140625 -0.5q-0.140625 -0.21875 -0.390625 -0.296875q-0.25 -0.078125 -0.875 -0.078125l-1.140625 0l0 1.71875zm0 2.65625l1.421875 0q0.375 0 0.515625 -0.03125q0.265625 -0.046875 0.4375 -0.15625q0.1875 -0.109375 0.296875 -0.3125q0.109375 -0.21875 0.109375 -0.484375q0 -0.328125 -0.171875 -0.5625q-0.15625 -0.234375 -0.453125 -0.328125q-0.28125 -0.09375 -0.828125 -0.09375l-1.328125 0l0 1.96875zm8.3671875 -5.0625l0.765625 0l0 3.3125q0 0.859375 -0.203125 1.375q-0.1875 0.5 -0.703125 0.828125q-0.515625 0.3125 -1.34375 0.3125q-0.796875 0 -1.3125 -0.265625q-0.515625 -0.28125 -0.734375 -0.8125q-0.21875 -0.53125 -0.21875 -1.4375l0 -3.3125l0.765625 0l0 3.3125q0 0.75 0.140625 1.109375q0.140625 0.34375 0.46875 0.53125q0.34375 0.1875 0.828125 0.1875q0.84375 0 1.1875 -0.375q0.359375 -0.375 0.359375 -1.453125l0 -3.3125zm2.0585938 5.734375l0 -5.734375l3.859375 0l0 0.6875l-3.09375 0l0 1.765625l2.6875 0l0 0.671875l-2.6875 0l0 2.609375l-0.765625 0zm4.8867188 0l0 -5.734375l3.859375 0l0 0.6875l-3.09375 0l0 1.765625l2.6875 0l0 0.671875l-2.6875 0l0 2.609375l-0.765625 0zm4.8710938 0l0 -5.734375l4.140625 0l0 0.6875l-3.390625 0l0 1.75l3.171875 0l0 0.671875l-3.171875 0l0 1.953125l3.515625 0l0 0.671875l-4.265625 0zm5.3203125 0l0 -5.734375l2.546875 0q0.765625 0 1.15625 0.15625q0.40625 0.15625 0.640625 0.546875q0.234375 0.390625 0.234375 0.859375q0 0.609375 -0.390625 1.03125q-0.390625 0.421875 -1.21875 0.53125q0.296875 0.140625 0.453125 0.28125q0.34375 0.3125 0.640625 0.765625l0.984375 1.5625l-0.953125 0l-0.75 -1.1875q-0.328125 -0.515625 -0.546875 -0.78125q-0.21875 -0.28125 -0.390625 -0.390625q-0.171875 -0.109375 -0.34375 -0.15625q-0.125 -0.03125 -0.421875 -0.03125l-0.875 0l0 2.546875l-0.765625 0zm0.765625 -3.203125l1.625 0q0.515625 0 0.8125 -0.109375q0.296875 -0.109375 0.4375 -0.34375q0.15625 -0.234375 0.15625 -0.515625q0 -0.40625 -0.296875 -0.65625q-0.28125 -0.265625 -0.921875 -0.265625l-1.8125 0l0 1.890625z" fill-rule="nonzero"/><path fill="#000000" fill-opacity="0.0" d="m651.6352 222.23021l0 -36.94487l28.944885 0" fill-rule="evenodd"/><path stroke="#595959" stroke-width="1.0" stroke-linejoin="round" stroke-linecap="butt" d="m651.6352 222.23021l0 -36.94487l28.944885 0" fill-rule="evenodd"/><path fill="#eeeeee" d="m779.96063 202.40683l8.251953 10.505981l0 17.948654l-8.251953 10.505981z" fill-rule="evenodd"/><path stroke="#595959" stroke-width="1.0" stroke-linejoin="round" stroke-linecap="butt" d="m779.96063 202.40683l8.251953 10.505981l0 17.948654l-8.251953 10.505981z" fill-rule="evenodd"/><path fill="#000000" fill-opacity="0.0" d="m746.0866 184.6378l17.102356 0l0 27.842514l17.102356 0" fill-rule="evenodd"/><path stroke="#595959" stroke-width="1.0" stroke-linejoin="round" stroke-linecap="butt" d="m746.0866 184.6378l17.102356 0l0 27.842514l17.102356 0" fill-rule="evenodd"/><path fill="#000000" fill-opacity="0.0" d="m762.1732 228.89633l0 51.46457l-16.818909 0" fill-rule="evenodd"/><path stroke="#595959" stroke-width="1.0" stroke-linejoin="round" stroke-linecap="butt" d="m762.1732 228.89633l0 51.46457l-16.818909 0" fill-rule="evenodd"/><path fill="#000000" fill-opacity="0.0" d="m762.6483 229.2441l17.640442 0l0 0.5984192l-0.0026855469 0" fill-rule="evenodd"/><path stroke="#595959" stroke-width="1.0" stroke-linejoin="round" stroke-linecap="butt" d="m762.6483 229.2441l17.640442 0l0 0.5984192l-0.0026855469 0" fill-rule="evenodd"/><path fill="#000000" fill-opacity="0.0" d="m788.4147 221.72966l14.483032 0l0 0.4409485l0.6036377 0" fill-rule="evenodd"/><path stroke="#595959" stroke-width="1.0" stroke-linejoin="round" stroke-linecap="butt" d="m788.4147 221.72966l14.483032 0l0 0.4409485l0.6036377 0" fill-rule="evenodd"/><path fill="#000000" fill-opacity="0.0" d="m0 0l314.96063 0l0 42.015747l-314.96063 0z" fill-rule="evenodd"/><path fill="#000000" fill-opacity="0.0" d="m651.8635 185.42258l0 -46.44095l0.06298828 0l0 -46.44095" fill-rule="evenodd"/><path stroke="#595959" stroke-width="1.0" stroke-linejoin="round" stroke-linecap="butt" d="m651.8635 185.42258l0 -46.44095l0.06298828 0l0 -46.44095" fill-rule="evenodd"/><path fill="#000000" fill-opacity="0.0" d="m652.2021 92.88189l75.763794 0l0 0.06299591l75.763794 0" fill-rule="evenodd"/><path stroke="#595959" stroke-width="1.0" stroke-linejoin="round" stroke-linecap="butt" d="m652.2021 92.88189l75.763794 0l0 0.06299591l75.763794 0" fill-rule="evenodd"/><path fill="#000000" fill-opacity="0.0" d="m843.43304 93.603676l0 119.86343l19.874023 0l0 -0.3358612" fill-rule="evenodd"/><path stroke="#595959" stroke-width="1.0" stroke-linejoin="round" stroke-linecap="butt" d="m843.43304 93.603676l0 119.86343l19.874023 0l0 -0.3358612" fill-rule="evenodd"/><path fill="#000000" fill-opacity="0.0" d="m826.26245 93.603676l8.75592 0l0 0.06298828l8.75592 0" fill-rule="evenodd"/><path stroke="#595959" stroke-width="1.0" stroke-linejoin="round" stroke-linecap="butt" d="m826.26245 93.603676l8.75592 0l0 0.06298828l8.75592 0" fill-rule="evenodd"/><path fill="#000000" fill-opacity="0.0" d="m586.0722 204.021l0 271.68503l-29.070862 0l0 -271.68503z" fill-rule="evenodd"/><path fill="#595959" d="m569.39215 213.00537l5.734375 2.203125l0 0.8125l-5.734375 2.34375l0 -0.859375l1.734375 -0.671875l0 -2.390625l-1.734375 -0.625l0 -0.8125zm2.359375 1.65625l0 1.9375l1.578125 -0.59375q0.71875 -0.265625 1.1875 -0.40625q-0.546875 -0.109375 -1.09375 -0.3125l-1.671875 -0.625zm-2.359375 4.2890625l5.734375 0l0 0.75l-5.0625 0l0 2.828125l-0.671875 0l0 -3.578125zm5.734375 8.230469l0 0.765625l-3.3125 0q-0.859375 0 -1.375 -0.203125q-0.5 -0.1875 -0.828125 -0.703125q-0.3125 -0.515625 -0.3125 -1.34375q0 -0.796875 0.265625 -1.3125q0.28125 -0.515625 0.8125 -0.734375q0.53125 -0.21875 1.4375 -0.21875l3.3125 0l0 0.765625l-3.3125 0q-0.75 0 -1.109375 0.140625q-0.34375 0.140625 -0.53125 0.46875q-0.1875 0.34375 -0.1875 0.828125q0 0.84375 0.375 1.1875q0.375 0.359375 1.453125 0.359375l3.3125 0z" fill-rule="nonzero"/><path fill="#000000" fill-opacity="0.0" d="m190.30577 193.7454l271.68506 0l0 38.771652l-271.68506 0z" fill-rule="evenodd"/><path fill="#595959" d="m306.32602 210.4254l0 -5.734375l2.546875 0q0.765625 0 1.15625 0.15625q0.40625 0.15625 0.640625 0.546875q0.234375 0.390625 0.234375 0.859375q0 0.609375 -0.390625 1.03125q-0.390625 0.421875 -1.21875 0.53125q0.296875 0.140625 0.453125 0.28125q0.34375 0.3125 0.640625 0.765625l0.984375 1.5625l-0.953125 0l-0.75 -1.1875q-0.328125 -0.515625 -0.546875 -0.78125q-0.21875 -0.28125 -0.390625 -0.390625q-0.171875 -0.109375 -0.34375 -0.15625q-0.125 -0.03125 -0.421875 -0.03125l-0.875 0l0 2.546875l-0.765625 0zm0.765625 -3.203125l1.625 0q0.515625 0 0.8125 -0.109375q0.296875 -0.109375 0.4375 -0.34375q0.15625 -0.234375 0.15625 -0.515625q0 -0.40625 -0.296875 -0.65625q-0.28125 -0.265625 -0.921875 -0.265625l-1.8125 0l0 1.890625zm5.0273438 3.203125l0 -5.734375l4.140625 0l0 0.6875l-3.390625 0l0 1.75l3.171875 0l0 0.671875l-3.171875 0l0 1.953125l3.515625 0l0 0.671875l-4.265625 0zm7.992218 -2.25l0 -0.671875l2.421875 0l0 2.125q-0.546875 0.4375 -1.140625 0.671875q-0.59375 0.21875 -1.21875 0.21875q-0.84375 0 -1.546875 -0.359375q-0.6875305 -0.359375 -1.0469055 -1.046875q-0.34375 -0.6875 -0.34375 -1.53125q0 -0.828125 0.34375 -1.546875q0.359375 -0.734375 1.0156555 -1.078125q0.65625 -0.359375 1.515625 -0.359375q0.625 0 1.125 0.203125q0.5 0.203125 0.78125 0.5625q0.28125 0.359375 0.4375 0.9375l-0.6875 0.1875q-0.125 -0.4375 -0.328125 -0.6875q-0.1875 -0.25 -0.546875 -0.390625q-0.34375 -0.15625 -0.78125 -0.15625q-0.515625 0 -0.90625 0.15625q-0.375 0.15625 -0.609375 0.421875q-0.21875 0.25 -0.35940552 0.5625q-0.21875 0.53125 -0.21875 1.140625q0 0.765625 0.265625 1.28125q0.26565552 0.515625 0.7656555 0.765625q0.515625 0.25 1.078125 0.25q0.484375 0 0.953125 -0.1875q0.46875 -0.1875 0.71875 -0.40625l0 -1.0625l-1.6875 0zm3.6757812 2.25l0 -5.734375l0.75 0l0 5.734375l-0.75 0zm1.8320312 -1.84375l0.71875 -0.0625q0.046875 0.4375 0.234375 0.71875q0.1875 0.265625 0.578125 0.4375q0.390625 0.171875 0.875 0.171875q0.4375 0 0.765625 -0.125q0.328125 -0.140625 0.484375 -0.359375q0.171875 -0.234375 0.171875 -0.5q0 -0.265625 -0.15625 -0.46875q-0.15625 -0.203125 -0.515625 -0.328125q-0.234375 -0.09375 -1.03125 -0.28125q-0.78125 -0.1875 -1.09375 -0.359375q-0.40625 -0.21875 -0.609375 -0.53125q-0.203125 -0.328125 -0.203125 -0.71875q0 -0.4375 0.25 -0.8125q0.25 -0.375 0.71875 -0.5625q0.46875 -0.203125 1.046875 -0.203125q0.640625 0 1.125 0.203125q0.484375 0.203125 0.75 0.609375q0.265625 0.390625 0.28125 0.90625l-0.734375 0.046875q-0.046875 -0.546875 -0.390625 -0.8125q-0.34375 -0.28125 -1.0 -0.28125q-0.6875 0 -1.0 0.25q-0.3125 0.25 -0.3125 0.609375q0 0.3125 0.21875 0.5q0.21875 0.203125 1.140625 0.421875q0.921875 0.203125 1.265625 0.359375q0.5 0.234375 0.734375 0.59375q0.25 0.34375 0.25 0.796875q0 0.46875 -0.265625 0.875q-0.265625 0.390625 -0.75 0.625q-0.484375 0.21875 -1.109375 0.21875q-0.765625 0 -1.296875 -0.21875q-0.53125 -0.234375 -0.828125 -0.6875q-0.296875 -0.453125 -0.3125 -1.03125zm7.0546875 1.84375l0 -5.046875l-1.890625 0l0 -0.6875l4.546875 0l0 0.6875l-1.90625 0l0 5.046875l-0.75 0zm3.4492188 0l0 -5.734375l4.140625 0l0 0.6875l-3.390625 0l0 1.75l3.171875 0l0 0.671875l-3.171875 0l0 1.953125l3.515625 0l0 0.671875l-4.265625 0zm5.3203125 0l0 -5.734375l2.546875 0q0.765625 0 1.15625 0.15625q0.40625 0.15625 0.640625 0.546875q0.234375 0.390625 0.234375 0.859375q0 0.609375 -0.390625 1.03125q-0.390625 0.421875 -1.21875 0.53125q0.296875 0.140625 0.453125 0.28125q0.34375 0.3125 0.640625 0.765625l0.984375 1.5625l-0.953125 0l-0.75 -1.1875q-0.328125 -0.515625 -0.546875 -0.78125q-0.21875 -0.28125 -0.390625 -0.390625q-0.171875 -0.109375 -0.34375 -0.15625q-0.125 -0.03125 -0.421875 -0.03125l-0.875 0l0 2.546875l-0.765625 0zm0.765625 -3.203125l1.625 0q0.515625 0 0.8125 -0.109375q0.296875 -0.109375 0.4375 -0.34375q0.15625 -0.234375 0.15625 -0.515625q0 -0.40625 -0.296875 -0.65625q-0.28125 -0.265625 -0.921875 -0.265625l-1.8125 0l0 1.890625z" fill-rule="nonzero"/><path fill="#595959" d="m318.3573 220.0254l0 -5.734375l3.859375 0l0 0.6875l-3.09375 0l0 1.765625l2.6875 0l0 0.671875l-2.6875 0l0 2.609375l-0.765625 0zm4.9804688 0l0 -5.734375l0.75 0l0 5.734375l-0.75 0zm2.0664062 0l0 -5.734375l0.75 0l0 5.0625l2.828125 0l0 0.671875l-3.578125 0zm4.4960938 0l0 -5.734375l4.140625 0l0 0.6875l-3.390625 0l0 1.75l3.171875 0l0 0.671875l-3.171875 0l0 1.953125l3.515625 0l0 0.671875l-4.265625 0z" fill-rule="nonzero"/><path fill="#000000" fill-opacity="0.0" d="m128.48294 428.41995l415.74802 0l0 38.771637l-415.74802 0z" fill-rule="evenodd"/><path fill="#595959" d="m138.23294 445.09995l0 -5.734375l0.75 0l0 5.734375l-0.75 0zm2.0820312 0l0 -5.734375l0.78125 0l3.0 4.5l0 -4.5l0.734375 0l0 5.734375l-0.78125 0l-3.0 -4.5l0 4.5l-0.734375 0zm5.5273438 -1.84375l0.71875 -0.0625q0.046875 0.4375 0.234375 0.71875q0.1875 0.265625 0.578125 0.4375q0.390625 0.171875 0.875 0.171875q0.4375 0 0.765625 -0.125q0.328125 -0.140625 0.484375 -0.359375q0.171875 -0.234375 0.171875 -0.5q0 -0.265625 -0.15625 -0.46875q-0.15625 -0.203125 -0.515625 -0.328125q-0.234375 -0.09375 -1.03125 -0.28125q-0.78125 -0.1875 -1.09375 -0.359375q-0.40625 -0.21875 -0.609375 -0.53125q-0.203125 -0.328125 -0.203125 -0.71875q0 -0.4375 0.25 -0.8125q0.25 -0.375 0.71875 -0.5625q0.46875 -0.203125 1.046875 -0.203125q0.640625 0 1.125 0.203125q0.484375 0.203125 0.75 0.609375q0.265625 0.390625 0.28125 0.90625l-0.734375 0.046875q-0.046875 -0.546875 -0.390625 -0.8125q-0.34375 -0.28125 -1.0 -0.28125q-0.6875 0 -1.0 0.25q-0.3125 0.25 -0.3125 0.609375q0 0.3125 0.21875 0.5q0.21875 0.203125 1.140625 0.421875q0.921875 0.203125 1.265625 0.359375q0.5 0.234375 0.734375 0.59375q0.25 0.34375 0.25 0.796875q0 0.46875 -0.265625 0.875q-0.265625 0.390625 -0.75 0.625q-0.484375 0.21875 -1.109375 0.21875q-0.765625 0 -1.296875 -0.21875q-0.53125 -0.234375 -0.828125 -0.6875q-0.296875 -0.453125 -0.3125 -1.03125zm7.0546875 1.84375l0 -5.046875l-1.890625 0l0 -0.6875l4.546875 0l0 0.6875l-1.90625 0l0 5.046875l-0.75 0zm3.4335938 0l0 -5.734375l2.546875 0q0.765625 0 1.15625 0.15625q0.40625 0.15625 0.640625 0.546875q0.234375 0.390625 0.234375 0.859375q0 0.609375 -0.390625 1.03125q-0.390625 0.421875 -1.21875 0.53125q0.296875 0.140625 0.453125 0.28125q0.34375 0.3125 0.640625 0.765625l0.984375 1.5625l-0.953125 0l-0.75 -1.1875q-0.328125 -0.515625 -0.546875 -0.78125q-0.21875 -0.28125 -0.390625 -0.390625q-0.171875 -0.109375 -0.34375 -0.15625q-0.125 -0.03125 -0.421875 -0.03125l-0.875 0l0 2.546875l-0.765625 0zm0.765625 -3.203125l1.625 0q0.515625 0 0.8125 -0.109375q0.296875 -0.109375 0.4375 -0.34375q0.15625 -0.234375 0.15625 -0.515625q0 -0.40625 -0.296875 -0.65625q-0.28125 -0.265625 -0.921875 -0.265625l-1.8125 0l0 1.890625zm8.761719 -2.53125l0.765625 0l0 3.3125q0 0.859375 -0.203125 1.375q-0.1875 0.5 -0.703125 0.828125q-0.515625 0.3125 -1.34375 0.3125q-0.796875 0 -1.3125 -0.265625q-0.515625 -0.28125 -0.734375 -0.8125q-0.21875 -0.53125 -0.21875 -1.4375l0 -3.3125l0.765625 0l0 3.3125q0 0.75 0.140625 1.109375q0.140625 0.34375 0.46875 0.53125q0.34375 0.1875 0.828125 0.1875q0.84375 0 1.1875 -0.375q0.359375 -0.375 0.359375 -1.453125l0 -3.3125zm6.1054688 3.71875l0.765625 0.203125q-0.25 0.921875 -0.875 1.421875q-0.609375 0.484375 -1.5 0.484375q-0.921875 0 -1.515625 -0.375q-0.578125 -0.375 -0.875 -1.09375q-0.296875 -0.71875 -0.296875 -1.53125q0 -0.890625 0.328125 -1.5625q0.34375 -0.671875 0.96875 -1.015625q0.640625 -0.34375 1.40625 -0.34375q0.859375 0 1.4375 0.4375q0.59375 0.4375 0.8125 1.234375l-0.734375 0.171875q-0.203125 -0.625 -0.59375 -0.90625q-0.375 -0.28125 -0.9375 -0.28125q-0.671875 0 -1.109375 0.3125q-0.4375 0.3125 -0.625 0.84375q-0.171875 0.53125 -0.171875 1.109375q0 0.71875 0.203125 1.265625q0.21875 0.546875 0.65625 0.828125q0.453125 0.265625 0.984375 0.265625q0.640625 0 1.078125 -0.359375q0.4375 -0.375 0.59375 -1.109375zm3.1523438 2.015625l0 -5.046875l-1.890625 0l0 -0.6875l4.546875 0l0 0.6875l-1.90625 0l0 5.046875l-0.75 0zm3.5585938 0l0 -5.734375l0.75 0l0 5.734375l-0.75 0zm1.8632812 -2.796875q0 -1.421875 0.765625 -2.21875q0.765625 -0.8125 1.96875 -0.8125q0.796875 0 1.4375 0.375q0.640625 0.375 0.96875 1.0625q0.328125 0.671875 0.328125 1.53125q0 0.875 -0.359375 1.5625q-0.34375 0.6875 -0.984375 1.046875q-0.640625 0.34375 -1.390625 0.34375q-0.8125 0 -1.453125 -0.390625q-0.625 -0.390625 -0.953125 -1.0625q-0.328125 -0.671875 -0.328125 -1.4375zm0.78125 0.015625q0 1.03125 0.546875 1.640625q0.5625 0.59375 1.40625 0.59375q0.859375 0 1.40625 -0.59375q0.546875 -0.609375 0.546875 -1.71875q0 -0.703125 -0.234375 -1.21875q-0.234375 -0.53125 -0.6875 -0.8125q-0.453125 -0.28125 -1.015625 -0.28125q-0.8125 0 -1.390625 0.546875q-0.578125 0.546875 -0.578125 1.84375zm5.6601562 2.78125l0 -5.734375l0.78125 0l3.0 4.5l0 -4.5l0.734375 0l0 5.734375l-0.78125 0l-3.0 -4.5l0 4.5l-0.734375 0z" fill-rule="nonzero"/><path fill="#595959" d="m138.07669 454.69995l0 -5.734375l1.140625 0l1.359375 4.0625q0.1875 0.5625 0.265625 0.84375q0.109375 -0.3125 0.3125 -0.921875l1.375 -3.984375l1.015625 0l0 5.734375l-0.734375 0l0 -4.796875l-1.65625 4.796875l-0.6875 0l-1.65625 -4.875l0 4.875l-0.734375 0zm6.7109375 0l0 -5.734375l4.140625 0l0 0.6875l-3.390625 0l0 1.75l3.171875 0l0 0.671875l-3.171875 0l0 1.953125l3.515625 0l0 0.671875l-4.265625 0zm5.2890625 0l0 -5.734375l1.140625 0l1.359375 4.0625q0.1875 0.5625 0.265625 0.84375q0.109375 -0.3125 0.3125 -0.921875l1.375 -3.984375l1.015625 0l0 5.734375l-0.734375 0l0 -4.796875l-1.65625 4.796875l-0.6875 0l-1.65625 -4.875l0 4.875l-0.734375 0zm6.4609375 -2.796875q0 -1.421875 0.765625 -2.21875q0.765625 -0.8125 1.96875 -0.8125q0.796875 0 1.4375 0.375q0.640625 0.375 0.96875 1.0625q0.328125 0.671875 0.328125 1.53125q0 0.875 -0.359375 1.5625q-0.34375 0.6875 -0.984375 1.046875q-0.640625 0.34375 -1.390625 0.34375q-0.8125 0 -1.453125 -0.390625q-0.625 -0.390625 -0.953125 -1.0625q-0.328125 -0.671875 -0.328125 -1.4375zm0.78125 0.015625q0 1.03125 0.546875 1.640625q0.5625 0.59375 1.40625 0.59375q0.859375 0 1.40625 -0.59375q0.546875 -0.609375 0.546875 -1.71875q0 -0.703125 -0.234375 -1.21875q-0.234375 -0.53125 -0.6875 -0.8125q-0.453125 -0.28125 -1.015625 -0.28125q-0.8125 0 -1.390625 0.546875q-0.578125 0.546875 -0.578125 1.84375zm5.6757812 2.78125l0 -5.734375l2.546875 0q0.765625 0 1.15625 0.15625q0.40625 0.15625 0.640625 0.546875q0.234375 0.390625 0.234375 0.859375q0 0.609375 -0.390625 1.03125q-0.390625 0.421875 -1.21875 0.53125q0.296875 0.140625 0.453125 0.28125q0.34375 0.3125 0.640625 0.765625l0.984375 1.5625l-0.953125 0l-0.75 -1.1875q-0.328125 -0.515625 -0.546875 -0.78125q-0.21875 -0.28125 -0.390625 -0.390625q-0.171875 -0.109375 -0.34375 -0.15625q-0.125 -0.03125 -0.421875 -0.03125l-0.875 0l0 2.546875l-0.765625 0zm0.765625 -3.203125l1.625 0q0.515625 0 0.8125 -0.109375q0.296875 -0.109375 0.4375 -0.34375q0.15625 -0.234375 0.15625 -0.515625q0 -0.40625 -0.296875 -0.65625q-0.28125 -0.265625 -0.921875 -0.265625l-1.8125 0l0 1.890625zm6.4765625 3.203125l0 -2.421875l-2.203125 -3.3125l0.921875 0l1.125 1.734375q0.3125 0.484375 0.578125 0.96875q0.265625 -0.453125 0.625 -1.015625l1.109375 -1.6875l0.890625 0l-2.296875 3.3125l0 2.421875l-0.75 0z" fill-rule="nonzero"/><path fill="#eeeeee" d="m28.897638 498.90036l0 0c0 -2.4614258 1.995369 -4.456787 4.4567814 -4.456787l848.8187 0c1.1820068 0 2.3156128 0.46954346 3.1514282 1.3053589c0.8357544 0.8358154 1.3053589 1.9694214 1.3053589 3.1514282l0 17.826569c0 2.4614258 -1.9954224 4.456787 -4.456787 4.456787l-848.8187 0l0 0c-2.4614124 0 -4.4567814 -1.9953613 -4.4567814 -4.456787z" fill-rule="evenodd"/><path stroke="#595959" stroke-width="1.0" stroke-linejoin="round" stroke-linecap="butt" d="m28.897638 498.90036l0 0c0 -2.4614258 1.995369 -4.456787 4.4567814 -4.456787l848.8187 0c1.1820068 0 2.3156128 0.46954346 3.1514282 1.3053589c0.8357544 0.8358154 1.3053589 1.9694214 1.3053589 3.1514282l0 17.826569c0 2.4614258 -1.9954224 4.456787 -4.456787 4.456787l-848.8187 0l0 0c-2.4614124 0 -4.4567814 -1.9953613 -4.4567814 -4.456787z" fill-rule="evenodd"/><path fill="#000000" d="m431.51572 510.49365l0 -5.734375l0.765625 0l0 2.359375l2.96875 0l0 -2.359375l0.765625 0l0 5.734375l-0.765625 0l0 -2.703125l-2.96875 0l0 2.703125l-0.765625 0zm5.1210938 0l2.203125 -5.734375l0.8125 0l2.34375 5.734375l-0.859375 0l-0.671875 -1.734375l-2.390625 0l-0.625 1.734375l-0.8125 0zm1.65625 -2.359375l1.9375 0l-0.59375 -1.578125q-0.265625 -0.71875 -0.40625 -1.1875q-0.109375 0.546875 -0.3125 1.09375l-0.625 1.671875zm3.8515625 2.359375l0 -0.703125l2.9375 -3.671875q0.3125 -0.390625 0.59375 -0.671875l-3.1875 0l0 -0.6875l4.09375 0l0 0.6875l-3.21875 3.96875l-0.34375 0.40625l3.65625 0l0 0.671875l-4.53125 0zm4.7148438 0l2.203125 -5.734375l0.8125 0l2.34375 5.734375l-0.859375 0l-0.671875 -1.734375l-2.390625 0l-0.625 1.734375l-0.8125 0zm1.65625 -2.359375l1.9375 0l-0.59375 -1.578125q-0.265625 -0.71875 -0.40625 -1.1875q-0.109375 0.546875 -0.3125 1.09375l-0.625 1.671875zm4.3203125 2.359375l0 -5.734375l2.546875 0q0.765625 0 1.15625 0.15625q0.40625 0.15625 0.640625 0.546875q0.234375 0.390625 0.234375 0.859375q0 0.609375 -0.390625 1.03125q-0.390625 0.421875 -1.21875 0.53125q0.296875 0.140625 0.453125 0.28125q0.34375 0.3125 0.640625 0.765625l0.984375 1.5625l-0.953125 0l-0.75 -1.1875q-0.328125 -0.515625 -0.546875 -0.78125q-0.21875 -0.28125 -0.390625 -0.390625q-0.171875 -0.109375 -0.34375 -0.15625q-0.125 -0.03125 -0.421875 -0.03125l-0.875 0l0 2.546875l-0.765625 0zm0.765625 -3.203125l1.625 0q0.515625 0 0.8125 -0.109375q0.296875 -0.109375 0.4375 -0.34375q0.15625 -0.234375 0.15625 -0.515625q0 -0.40625 -0.296875 -0.65625q-0.28125 -0.265625 -0.921875 -0.265625l-1.8125 0l0 1.890625zm5.0117188 3.203125l0 -5.734375l1.96875 0q0.671875 0 1.015625 0.09375q0.5 0.109375 0.84375 0.40625q0.453125 0.375 0.671875 0.984375q0.234375 0.59375 0.234375 1.359375q0 0.640625 -0.15625 1.15625q-0.15625 0.5 -0.390625 0.828125q-0.234375 0.328125 -0.53125 0.515625q-0.28125 0.1875 -0.6875 0.296875q-0.390625 0.09375 -0.90625 0.09375l-2.0625 0zm0.75 -0.671875l1.21875 0q0.578125 0 0.890625 -0.109375q0.328125 -0.109375 0.515625 -0.296875q0.265625 -0.265625 0.421875 -0.71875q0.15625 -0.46875 0.15625 -1.109375q0 -0.90625 -0.296875 -1.375q-0.296875 -0.484375 -0.71875 -0.65625q-0.3125 -0.109375 -0.984375 -0.109375l-1.203125 0l0 4.375zm11.0 -5.0625l0.765625 0l0 3.3125q0 0.859375 -0.203125 1.375q-0.1875 0.5 -0.703125 0.828125q-0.515625 0.3125 -1.34375 0.3125q-0.796875 0 -1.3125 -0.265625q-0.515625 -0.28125 -0.734375 -0.8125q-0.21875 -0.53125 -0.21875 -1.4375l0 -3.3125l0.765625 0l0 3.3125q0 0.75 0.140625 1.109375q0.140625 0.34375 0.46875 0.53125q0.34375 0.1875 0.828125 0.1875q0.84375 0 1.1875 -0.375q0.359375 -0.375 0.359375 -1.453125l0 -3.3125zm2.0117188 5.734375l0 -5.734375l0.78125 0l3.0 4.5l0 -4.5l0.734375 0l0 5.734375l-0.78125 0l-3.0 -4.5l0 4.5l-0.734375 0zm5.9179688 0l0 -5.734375l0.75 0l0 5.734375l-0.75 0zm3.5507812 0l0 -5.046875l-1.890625 0l0 -0.6875l4.546875 0l0 0.6875l-1.90625 0l0 5.046875l-0.75 0z" fill-rule="nonzero"/><path fill="#000000" fill-opacity="0.0" d="m132.76509 129.54462l416.25195 0l0 35.55905l-416.25195 0z" fill-rule="evenodd"/><path fill="#595959" d="m146.07759 151.34462l0 -2.28125l-4.140625 0l0 -1.078125l4.34375 -6.1875l0.96875 0l0 6.1875l1.28125 0l0 1.078125l-1.28125 0l0 2.28125l-1.171875 0zm0 -3.359375l0 -4.296875l-2.984375 4.296875l2.984375 0z" fill-rule="nonzero"/><path fill="#000000" fill-opacity="0.0" d="m42.66142 267.25198l296.9134 0l0 29.070862l-296.9134 0z" fill-rule="evenodd"/><path fill="#000000" fill-opacity="0.0" d="m59.49344 202.40683l0 231.33856l-29.070866 0l0 -231.33856z" fill-rule="evenodd"/><path fill="#595959" d="m42.81344 212.00058l5.734375 0l0 1.140625l-4.0625 1.359375q-0.5625 0.1875 -0.84375 0.265625q0.3125 0.109375 0.921875 0.3125l3.984375 1.375l0 1.015625l-5.734375 0l0 -0.734375l4.796875 0l-4.796875 -1.65625l0 -0.6875l4.875 -1.65625l-4.875 0l0 -0.734375zm5.734375 10.4453125l0 0.765625l-3.3125 0q-0.859375 0 -1.375 -0.203125q-0.5 -0.1875 -0.828125 -0.703125q-0.3125 -0.515625 -0.3125 -1.34375q0 -0.796875 0.265625 -1.3125q0.28125 -0.515625 0.8125 -0.734375q0.53125 -0.21875 1.4375 -0.21875l3.3125 0l0 0.765625l-3.3125 0q-0.75 0 -1.109375 0.140625q-0.34375 0.140625 -0.53125 0.46875q-0.1875 0.34375 -0.1875 0.828125q0 0.84375 0.375 1.1875q0.375 0.359375 1.453125 0.359375l3.3125 0zm-5.734375 1.4335938l2.984375 2.21875l2.75 -1.953125l0 0.90625l-1.46875 1.03125q-0.46875 0.328125 -0.703125 0.46875q0.3125 0.1875 0.640625 0.453125l1.53125 1.15625l0 0.8125l-2.703125 -2.0l-3.03125 2.15625l0 -0.9375l2.046875 -1.4375q0.171875 -0.125 0.375 -0.25q-0.3125 -0.1875 -0.421875 -0.265625l-2.0 -1.4375l0 -0.921875z" fill-rule="nonzero"/><path fill="#000000" fill-opacity="0.0" d="m543.7782 224.19423l0 231.33858l-29.070862 0l0 -231.33858z" fill-rule="evenodd"/><path fill="#595959" d="m527.0982 233.78798l5.734375 0l0 1.140625l-4.0625 1.359375q-0.5625 0.1875 -0.84375 0.265625q0.3125 0.109375 0.921875 0.3125l3.984375 1.375l0 1.015625l-5.734375 0l0 -0.734375l4.796875 0l-4.796875 -1.65625l0 -0.6875l4.875 -1.65625l-4.875 0l0 -0.734375zm5.734375 10.4453125l0 0.765625l-3.3125 0q-0.859375 0 -1.375 -0.203125q-0.5 -0.1875 -0.828125 -0.703125q-0.3125 -0.515625 -0.3125 -1.34375q0 -0.796875 0.265625 -1.3125q0.28125 -0.515625 0.8125 -0.734375q0.53125 -0.21875 1.4375 -0.21875l3.3125 0l0 0.765625l-3.3125 0q-0.75 0 -1.109375 0.140625q-0.34375 0.140625 -0.53125 0.46875q-0.1875 0.34375 -0.1875 0.828125q0 0.84375 0.375 1.1875q0.375 0.359375 1.453125 0.359375l3.3125 0zm-5.734375 1.4335938l2.984375 2.21875l2.75 -1.953125l0 0.90625l-1.46875 1.03125q-0.46875 0.328125 -0.703125 0.46875q0.3125 0.1875 0.640625 0.453125l1.53125 1.15625l0 0.8125l-2.703125 -2.0l-3.03125 2.15625l0 -0.9375l2.046875 -1.4375q0.171875 -0.125 0.375 -0.25q-0.3125 -0.1875 -0.421875 -0.265625l-2.0 -1.4375l0 -0.921875z" fill-rule="nonzero"/><path fill="#000000" fill-opacity="0.0" d="m543.7782 186.96588l0 231.3386l-29.070862 0l0 -231.3386z" fill-rule="evenodd"/><path fill="#595959" d="m527.0982 196.55963l5.734375 0l0 1.140625l-4.0625 1.359375q-0.5625 0.1875 -0.84375 0.265625q0.3125 0.109375 0.921875 0.3125l3.984375 1.375l0 1.015625l-5.734375 0l0 -0.734375l4.796875 0l-4.796875 -1.65625l0 -0.6875l4.875 -1.65625l-4.875 0l0 -0.734375zm5.734375 10.4453125l0 0.765625l-3.3125 0q-0.859375 0 -1.375 -0.203125q-0.5 -0.1875 -0.828125 -0.703125q-0.3125 -0.515625 -0.3125 -1.34375q0 -0.796875 0.265625 -1.3125q0.28125 -0.515625 0.8125 -0.734375q0.53125 -0.21875 1.4375 -0.21875l3.3125 0l0 0.765625l-3.3125 0q-0.75 0 -1.109375 0.140625q-0.34375 0.140625 -0.53125 0.46875q-0.1875 0.34375 -0.1875 0.828125q0 0.84375 0.375 1.1875q0.375 0.359375 1.453125 0.359375l3.3125 0zm-5.734375 1.4335938l2.984375 2.21875l2.75 -1.953125l0 0.90625l-1.46875 1.03125q-0.46875 0.328125 -0.703125 0.46875q0.3125 0.1875 0.640625 0.453125l1.53125 1.15625l0 0.8125l-2.703125 -2.0l-3.03125 2.15625l0 -0.9375l2.046875 -1.4375q0.171875 -0.125 0.375 -0.25q-0.3125 -0.1875 -0.421875 -0.265625l-2.0 -1.4375l0 -0.921875z" fill-rule="nonzero"/><path fill="#000000" fill-opacity="0.0" d="m798.8648 201.70604l0 231.33858l-29.070862 0l0 -231.33858z" fill-rule="evenodd"/><path fill="#595959" d="m782.1848 211.29979l5.734375 0l0 1.140625l-4.0625 1.359375q-0.5625 0.1875 -0.84375 0.265625q0.3125 0.109375 0.921875 0.3125l3.984375 1.375l0 1.015625l-5.734375 0l0 -0.734375l4.796875 0l-4.796875 -1.65625l0 -0.6875l4.875 -1.65625l-4.875 0l0 -0.734375zm5.734375 10.4453125l0 0.765625l-3.3125 0q-0.859375 0 -1.375 -0.203125q-0.5 -0.1875 -0.828125 -0.703125q-0.3125 -0.515625 -0.3125 -1.34375q0 -0.796875 0.265625 -1.3125q0.28125 -0.515625 0.8125 -0.734375q0.53125 -0.21875 1.4375 -0.21875l3.3125 0l0 0.765625l-3.3125 0q-0.75 0 -1.109375 0.140625q-0.34375 0.140625 -0.53125 0.46875q-0.1875 0.34375 -0.1875 0.828125q0 0.84375 0.375 1.1875q0.375 0.359375 1.453125 0.359375l3.3125 0zm-5.734375 1.4335938l2.984375 2.21875l2.75 -1.953125l0 0.90625l-1.46875 1.03125q-0.46875 0.328125 -0.703125 0.46875q0.3125 0.1875 0.640625 0.453125l1.53125 1.15625l0 0.8125l-2.703125 -2.0l-3.03125 2.15625l0 -0.9375l2.046875 -1.4375q0.171875 -0.125 0.375 -0.25q-0.3125 -0.1875 -0.421875 -0.265625l-2.0 -1.4375l0 -0.921875z" fill-rule="nonzero"/><path fill="#000000" fill-opacity="0.0" d="m882.4278 202.40683l0 231.33856l-29.070862 0l0 -231.33856z" fill-rule="evenodd"/><path fill="#595959" d="m865.7478 212.00058l5.734375 0l0 1.140625l-4.0625 1.359375q-0.5625 0.1875 -0.84375 0.265625q0.3125 0.109375 0.921875 0.3125l3.984375 1.375l0 1.015625l-5.734375 0l0 -0.734375l4.796875 0l-4.796875 -1.65625l0 -0.6875l4.875 -1.65625l-4.875 0l0 -0.734375zm5.734375 10.4453125l0 0.765625l-3.3125 0q-0.859375 0 -1.375 -0.203125q-0.5 -0.1875 -0.828125 -0.703125q-0.3125 -0.515625 -0.3125 -1.34375q0 -0.796875 0.265625 -1.3125q0.28125 -0.515625 0.8125 -0.734375q0.53125 -0.21875 1.4375 -0.21875l3.3125 0l0 0.765625l-3.3125 0q-0.75 0 -1.109375 0.140625q-0.34375 0.140625 -0.53125 0.46875q-0.1875 0.34375 -0.1875 0.828125q0 0.84375 0.375 1.1875q0.375 0.359375 1.453125 0.359375l3.3125 0zm-5.734375 1.4335938l2.984375 2.21875l2.75 -1.953125l0 0.90625l-1.46875 1.03125q-0.46875 0.328125 -0.703125 0.46875q0.3125 0.1875 0.640625 0.453125l1.53125 1.15625l0 0.8125l-2.703125 -2.0l-3.03125 2.15625l0 -0.9375l2.046875 -1.4375q0.171875 -0.125 0.375 -0.25q-0.3125 -0.1875 -0.421875 -0.265625l-2.0 -1.4375l0 -0.921875z" fill-rule="nonzero"/><path fill="#000000" fill-opacity="0.0" d="m344.55905 293.81104l0 231.33856l-29.070862 0l0 -231.33856z" fill-rule="evenodd"/><path fill="#595959" d="m327.87906 303.45166l5.734375 0l0 4.140625l-0.6875 0l0 -3.390625l-1.75 0l0 3.171875l-0.671875 0l0 -3.171875l-1.953125 0l0 3.515625l-0.671875 0l0 -4.265625zm0 4.7265625l2.984375 2.21875l2.75 -1.953125l0 0.90625l-1.46875 1.03125q-0.46875 0.328125 -0.703125 0.46875q0.3125 0.1875 0.640625 0.453125l1.53125 1.15625l0 0.8125l-2.703125 -2.0l-3.03125 2.15625l0 -0.9375l2.046875 -1.4375q0.171875 -0.125 0.375 -0.25q-0.3125 -0.1875 -0.421875 -0.265625l-2.0 -1.4375l0 -0.921875zm0 7.3828125l5.046875 0l0 -1.890625l0.6875 0l0 4.546875l-0.6875 0l0 -1.90625l-5.046875 0l0 -0.75zm0 3.4492188l5.734375 0l0 4.140625l-0.6875 0l0 -3.390625l-1.75 0l0 3.171875l-0.671875 0l0 -3.171875l-1.953125 0l0 3.515625l-0.671875 0l0 -4.265625zm0 5.3046875l5.734375 0l0 0.78125l-4.5 3.0l4.5 0l0 0.734375l-5.734375 0l0 -0.78125l4.5 -3.0l-4.5 0l0 -0.734375zm0 5.7929688l5.734375 0l0 1.96875q0 0.671875 -0.09375 1.015625q-0.109375 0.5 -0.40625 0.84375q-0.375 0.453125 -0.984375 0.671875q-0.59375 0.234375 -1.359375 0.234375q-0.640625 0 -1.15625 -0.15625q-0.5 -0.15625 -0.828125 -0.390625q-0.328125 -0.234375 -0.515625 -0.53125q-0.1875 -0.28125 -0.296875 -0.6875q-0.09375 -0.390625 -0.09375 -0.90625l0 -2.0625zm0.671875 0.75l0 1.21875q0 0.578125 0.109375 0.890625q0.109375 0.328125 0.296875 0.515625q0.265625 0.265625 0.71875 0.421875q0.46875 0.15625 1.109375 0.15625q0.90625 0 1.375 -0.296875q0.484375 -0.296875 0.65625 -0.71875q0.109375 -0.3125 0.109375 -0.984375l0 -1.203125l-4.375 0z" fill-rule="nonzero"/><path fill="#000000" fill-opacity="0.0" d="m681.2152 196.68504l-23.322815 0l0 0.1574707l-23.322815 0" fill-rule="evenodd"/><path stroke="#595959" stroke-width="1.0" stroke-linejoin="round" stroke-linecap="butt" d="m681.2152 196.68504l-23.322815 0l0 0.1574707l-23.322815 0" fill-rule="evenodd"/><path fill="#000000" fill-opacity="0.0" d="m622.91077 277.08923l0 0l11.811035 0l0 -80.25197" fill-rule="evenodd"/><path stroke="#595959" stroke-width="1.0" stroke-linejoin="round" stroke-linecap="butt" d="m622.91077 277.08923l0 0l11.811035 0l0 -80.25197" fill-rule="evenodd"/><path fill="#000000" fill-opacity="0.0" d="m703.9554 205.08398l0 15.968506l0.06298828 0l0 15.968506" fill-rule="evenodd"/><path stroke="#595959" stroke-width="1.0" stroke-linejoin="round" stroke-linecap="butt" d="m703.9554 205.08398l0 15.968506l0.06298828 0l0 15.968506" fill-rule="evenodd"/><path fill="#000000" fill-opacity="0.0" d="m722.50397 205.08398l0 15.732285l0.12597656 0l0 15.732285" fill-rule="evenodd"/><path stroke="#595959" stroke-width="1.0" stroke-linejoin="round" stroke-linecap="butt" d="m722.50397 205.08398l0 15.732285l0.12597656 0l0 15.732285" fill-rule="evenodd"/><path fill="#eeeeee" d="m770.895 165.91602l22.362183 0l0 14.425186l-22.362183 0z" fill-rule="evenodd"/><path stroke="#595959" stroke-width="1.0" stroke-linejoin="round" stroke-linecap="butt" d="m770.895 165.91602l22.362183 0l0 14.425186l-22.362183 0z" fill-rule="evenodd"/><path fill="#000000" fill-opacity="0.0" d="m770.895 173.12862l-12.362183 0l0 -0.09449768l-12.362244 0" fill-rule="evenodd"/><path stroke="#595959" stroke-width="1.0" stroke-linejoin="round" stroke-linecap="butt" d="m770.895 173.12862l-12.362183 0l0 -0.09449768l-12.362244 0" fill-rule="evenodd"/><path fill="#000000" fill-opacity="0.0" d="m785.30707 180.72704l0 29.228348" fill-rule="evenodd"/><path stroke="#595959" stroke-width="1.0" stroke-linejoin="round" stroke-linecap="butt" d="m785.30707 180.72704l0 29.228348" fill-rule="evenodd"/><path fill="#000000" fill-opacity="0.0" d="m764.2047 158.59186l178.33075 0l0 29.070877l-178.33075 0z" fill-rule="evenodd"/><path fill="#595959" d="m773.84534 175.27187l0 -5.734375l0.765625 0l0 2.359375l2.96875 0l0 -2.359375l0.765625 0l0 5.734375l-0.765625 0l0 -2.703125l-2.96875 0l0 2.703125l-0.765625 0zm5.8867188 0l0 -5.734375l0.75 0l0 5.734375l-0.75 0zm3.5507812 0l0 -5.046875l-1.890625 0l0 -0.6875l4.546875 0l0 0.6875l-1.90625 0l0 5.046875l-0.75 0zm4.6523438 -1.40625q0 -0.140625 0 -0.21875q0 -0.40625 0.109375 -0.71875q0.09375 -0.21875 0.28125 -0.453125q0.140625 -0.171875 0.5 -0.484375q0.375 -0.328125 0.484375 -0.515625q0.109375 -0.1875 0.109375 -0.421875q0 -0.40625 -0.328125 -0.71875q-0.3125 -0.3125 -0.78125 -0.3125q-0.453125 0 -0.75 0.28125q-0.296875 0.28125 -0.390625 0.875l-0.71875 -0.078125q0.09375 -0.796875 0.578125 -1.21875q0.484375 -0.4375 1.265625 -0.4375q0.84375 0 1.34375 0.46875q0.5 0.453125 0.5 1.09375q0 0.375 -0.171875 0.703125q-0.171875 0.3125 -0.6875 0.765625q-0.34375 0.296875 -0.453125 0.453125q-0.109375 0.140625 -0.15625 0.328125q-0.046875 0.1875 -0.0625 0.609375l-0.671875 0zm-0.046875 1.40625l0 -0.796875l0.8125 0l0 0.796875l-0.8125 0z" fill-rule="nonzero"/><path fill="#000000" fill-opacity="0.0" d="m54.5853 81.2231l49.795277 0l0 23.46457l-49.795277 0z" fill-rule="evenodd"/><path fill="#eeeeee" d="m62.459316 81.2231l41.92126 0l0 41.921257l-41.92126 0z" fill-rule="evenodd"/><path stroke="#595959" stroke-width="1.0" stroke-linejoin="round" stroke-linecap="butt" d="m62.459316 81.2231l41.92126 0l0 41.921257l-41.92126 0z" fill-rule="evenodd"/><path fill="#000000" fill-opacity="0.0" d="m54.5853 75.343834l314.96063 0l0 93.73228l-314.96063 0z" fill-rule="evenodd"/><path fill="#000000" d="m64.179054 92.023834l0 -5.734375l2.140625 0q0.65625 0 1.046875 0.1875q0.40625 0.171875 0.625 0.53125q0.234375 0.359375 0.234375 0.75q0 0.375 -0.203125 0.703125q-0.203125 0.3125 -0.609375 0.515625q0.53125 0.15625 0.796875 0.53125q0.28125 0.359375 0.28125 0.859375q0 0.390625 -0.171875 0.75q-0.15625 0.34375 -0.40625 0.53125q-0.25 0.1875 -0.640625 0.28125q-0.375 0.09375 -0.921875 0.09375l-2.171875 0zm0.75 -3.328125l1.234375 0q0.515625 0 0.734375 -0.0625q0.28125 -0.078125 0.421875 -0.28125q0.15625 -0.203125 0.15625 -0.5q0 -0.28125 -0.140625 -0.5q-0.140625 -0.21875 -0.390625 -0.296875q-0.25 -0.078125 -0.875 -0.078125l-1.140625 0l0 1.71875zm0 2.65625l1.421875 0q0.375 0 0.515625 -0.03125q0.265625 -0.046875 0.4375 -0.15625q0.1875 -0.109375 0.296875 -0.3125q0.109375 -0.21875 0.109375 -0.484375q0 -0.328125 -0.171875 -0.5625q-0.15625 -0.234375 -0.453125 -0.328125q-0.28125 -0.09375 -0.828125 -0.09375l-1.328125 0l0 1.96875zm4.6171875 0.671875l0 -5.734375l2.546875 0q0.765625 0 1.15625 0.15625q0.40625 0.15625 0.640625 0.546875q0.234375 0.390625 0.234375 0.859375q0 0.609375 -0.390625 1.03125q-0.390625 0.421875 -1.21875 0.53125q0.296875 0.140625 0.453125 0.28125q0.34375 0.3125 0.640625 0.765625l0.984375 1.5625l-0.953125 0l-0.75 -1.1875q-0.328125 -0.515625 -0.546875 -0.78125q-0.21875 -0.28125 -0.390625 -0.390625q-0.171875 -0.109375 -0.34375 -0.15625q-0.125 -0.03125 -0.421875 -0.03125l-0.875 0l0 2.546875l-0.765625 0zm0.765625 -3.203125l1.625 0q0.515625 0 0.8125 -0.109375q0.296875 -0.109375 0.4375 -0.34375q0.15625 -0.234375 0.15625 -0.515625q0 -0.40625 -0.296875 -0.65625q-0.28125 -0.265625 -0.921875 -0.265625l-1.8125 0l0 1.890625zm4.3710938 3.203125l2.203125 -5.734375l0.8125 0l2.34375 5.734375l-0.859375 0l-0.671875 -1.734375l-2.390625 0l-0.625 1.734375l-0.8125 0zm1.65625 -2.359375l1.9375 0l-0.59375 -1.578125q-0.265625 -0.71875 -0.40625 -1.1875q-0.109375 0.546875 -0.3125 1.09375l-0.625 1.671875zm4.3046875 2.359375l0 -5.734375l0.78125 0l3.0 4.5l0 -4.5l0.734375 0l0 5.734375l-0.78125 0l-3.0 -4.5l0 4.5l-0.734375 0zm9.871094 -2.015625l0.765625 0.203125q-0.25 0.921875 -0.875 1.421875q-0.609375 0.484375 -1.5 0.484375q-0.921875 0 -1.515625 -0.375q-0.578125 -0.375 -0.875 -1.09375q-0.296875 -0.71875 -0.296875 -1.53125q0 -0.890625 0.328125 -1.5625q0.34375 -0.671875 0.96875 -1.015625q0.640625 -0.34375 1.40625 -0.34375q0.859375 0 1.4375 0.4375q0.59375 0.4375 0.8125 1.234375l-0.734375 0.171875q-0.203125 -0.625 -0.59375 -0.90625q-0.375 -0.28125 -0.9375 -0.28125q-0.671875 0 -1.109375 0.3125q-0.4375 0.3125 -0.625 0.84375q-0.171875 0.53125 -0.171875 1.109375q0 0.71875 0.203125 1.265625q0.21875 0.546875 0.65625 0.828125q0.453125 0.265625 0.984375 0.265625q0.640625 0 1.078125 -0.359375q0.4375 -0.375 0.59375 -1.109375zm1.7148438 2.015625l0 -5.734375l0.765625 0l0 2.359375l2.96875 0l0 -2.359375l0.765625 0l0 5.734375l-0.765625 0l0 -2.703125l-2.96875 0l0 2.703125l-0.765625 0z" fill-rule="nonzero"/><path fill="#000000" d="m64.210304 101.62383l0 -5.734375l2.15625 0q0.5625 0 0.875 0.0625q0.421875 0.0625 0.703125 0.265625q0.28125 0.203125 0.453125 0.5625q0.171875 0.34375 0.171875 0.765625q0 0.734375 -0.46875 1.25q-0.453125 0.5 -1.671875 0.5l-1.46875 0l0 2.328125l-0.75 0zm0.75 -3.0l1.484375 0q0.734375 0 1.03125 -0.265625q0.3125 -0.28125 0.3125 -0.78125q0 -0.359375 -0.1875 -0.609375q-0.171875 -0.265625 -0.46875 -0.34375q-0.1875 -0.046875 -0.703125 -0.046875l-1.46875 0l0 2.046875zm4.5859375 3.0l0 -5.734375l2.546875 0q0.765625 0 1.15625 0.15625q0.40625 0.15625 0.640625 0.546875q0.234375 0.390625 0.234375 0.859375q0 0.609375 -0.390625 1.03125q-0.390625 0.421875 -1.21875 0.53125q0.296875 0.140625 0.453125 0.28125q0.34375 0.3125 0.640625 0.765625l0.984375 1.5625l-0.953125 0l-0.75 -1.1875q-0.328125 -0.515625 -0.546875 -0.78125q-0.21875 -0.28125 -0.390625 -0.390625q-0.171875 -0.109375 -0.34375 -0.15625q-0.125 -0.03125 -0.421875 -0.03125l-0.875 0l0 2.546875l-0.765625 0zm0.765625 -3.203125l1.625 0q0.515625 0 0.8125 -0.109375q0.296875 -0.109375 0.4375 -0.34375q0.15625 -0.234375 0.15625 -0.515625q0 -0.40625 -0.296875 -0.65625q-0.28125 -0.265625 -0.921875 -0.265625l-1.8125 0l0 1.890625zm5.0273438 3.203125l0 -5.734375l4.140625 0l0 0.6875l-3.390625 0l0 1.75l3.171875 0l0 0.671875l-3.171875 0l0 1.953125l3.515625 0l0 0.671875l-4.265625 0zm5.3203125 0l0 -5.734375l1.96875 0q0.671875 0 1.015625 0.09375q0.5 0.109375 0.84375 0.40625q0.453125 0.375 0.671875 0.984375q0.234375 0.59375 0.234375 1.359375q0 0.640625 -0.15625 1.15625q-0.15625 0.5 -0.390625 0.828125q-0.234375 0.328125 -0.53125 0.515625q-0.28125 0.1875 -0.6875 0.296875q-0.390625 0.09375 -0.90625 0.09375l-2.0625 0zm0.75 -0.671875l1.21875 0q0.578125 0 0.890625 -0.109375q0.328125 -0.109375 0.515625 -0.296875q0.265625 -0.265625 0.421875 -0.71875q0.15625 -0.46875 0.15625 -1.109375q0 -0.90625 -0.296875 -1.375q-0.296875 -0.484375 -0.71875 -0.65625q-0.3125 -0.109375 -0.984375 -0.109375l-1.203125 0l0 4.375zm5.1523438 0.671875l0 -5.734375l0.75 0l0 5.734375l-0.75 0zm6.1757812 -2.015625l0.765625 0.203125q-0.25 0.921875 -0.875 1.421875q-0.609375 0.484375 -1.5 0.484375q-0.921875 0 -1.515625 -0.375q-0.578125 -0.375 -0.875 -1.09375q-0.296875 -0.71875 -0.296875 -1.53125q0 -0.890625 0.328125 -1.5625q0.34375 -0.671875 0.96875 -1.015625q0.640625 -0.34375 1.40625 -0.34375q0.859375 0 1.4375 0.4375q0.59375 0.4375 0.8125 1.234375l-0.734375 0.171875q-0.203125 -0.625 -0.59375 -0.90625q-0.375 -0.28125 -0.9375 -0.28125q-0.671875 0 -1.109375 0.3125q-0.4375 0.3125 -0.625 0.84375q-0.171875 0.53125 -0.171875 1.109375q0 0.71875 0.203125 1.265625q0.21875 0.546875 0.65625 0.828125q0.453125 0.265625 0.984375 0.265625q0.640625 0 1.078125 -0.359375q0.4375 -0.375 0.59375 -1.109375zm1.3242188 0.296875l0 -0.703125l2.171875 0l0 0.703125l-2.171875 0z" fill-rule="nonzero"/><path fill="#000000" d="m65.66343 111.22383l0 -5.046875l-1.8906288 0l0 -0.6875l4.546879 0l0 0.6875l-1.90625 0l0 5.046875l-0.75 0zm3.0546875 -2.796875q0 -1.421875 0.765625 -2.21875q0.765625 -0.8125 1.96875 -0.8125q0.796875 0 1.4375 0.375q0.640625 0.375 0.96875 1.0625q0.328125 0.671875 0.328125 1.53125q0 0.875 -0.359375 1.5625q-0.34375 0.6875 -0.984375 1.046875q-0.640625 0.34375 -1.390625 0.34375q-0.8125 0 -1.453125 -0.390625q-0.625 -0.390625 -0.953125 -1.0625q-0.328125 -0.671875 -0.328125 -1.4375zm0.78125 0.015625q0 1.03125 0.546875 1.640625q0.5625 0.59375 1.40625 0.59375q0.859375 0 1.40625 -0.59375q0.546875 -0.609375 0.546875 -1.71875q0 -0.703125 -0.234375 -1.21875q-0.234375 -0.53125 -0.6875 -0.8125q-0.453125 -0.28125 -1.015625 -0.28125q-0.8125 0 -1.390625 0.546875q-0.578125 0.546875 -0.578125 1.84375zm5.6757812 2.78125l0 -5.734375l2.546875 0q0.765625 0 1.15625 0.15625q0.40625 0.15625 0.640625 0.546875q0.234375 0.390625 0.234375 0.859375q0 0.609375 -0.390625 1.03125q-0.390625 0.421875 -1.21875 0.53125q0.296875 0.140625 0.453125 0.28125q0.34375 0.3125 0.640625 0.765625l0.984375 1.5625l-0.953125 0l-0.75 -1.1875q-0.328125 -0.515625 -0.546875 -0.78125q-0.21875 -0.28125 -0.390625 -0.390625q-0.171875 -0.109375 -0.34375 -0.15625q-0.125 -0.03125 -0.421875 -0.03125l-0.875 0l0 2.546875l-0.765625 0zm0.765625 -3.203125l1.625 0q0.515625 0 0.8125 -0.109375q0.296875 -0.109375 0.4375 -0.34375q0.15625 -0.234375 0.15625 -0.515625q0 -0.40625 -0.296875 -0.65625q-0.28125 -0.265625 -0.921875 -0.265625l-1.8125 0l0 1.890625z" fill-rule="nonzero"/><path fill="#000000" fill-opacity="0.0" d="m62.446194 96.94226l-13.779526 0l0 -0.06299591l-13.77953 0" fill-rule="evenodd"/><path stroke="#595959" stroke-width="1.0" stroke-linejoin="round" stroke-linecap="butt" d="m62.446194 96.94226l-13.779526 0l0 -0.06299591l-13.77953 0" fill-rule="evenodd"/><path fill="#000000" fill-opacity="0.0" d="m35.12336 96.86877l0 61.291344l0.22047424 0l0 61.291336" fill-rule="evenodd"/><path stroke="#595959" stroke-width="1.0" stroke-linejoin="round" stroke-linecap="butt" d="m35.12336 96.86877l0 61.291344l0.22047424 0l0 61.291336" fill-rule="evenodd"/><path fill="#000000" fill-opacity="0.0" d="m35.34646 219.01575l3.0236206 0l0 0.22047424l3.0236206 0" fill-rule="evenodd"/><path stroke="#595959" stroke-width="1.0" stroke-linejoin="round" stroke-linecap="butt" d="m35.34646 219.01575l3.0236206 0l0 0.22047424l3.0236206 0" fill-rule="evenodd"/></g></svg>